<svg width="320" height="322" viewBox="0 0 320 322" fill="none" xmlns="http://www.w3.org/2000/svg">
<path d="M88.1859 291.612C88.8254 291.566 89.4004 291.913 90.0372 291.838C90.6364 291.799 91.2974 291.487 91.9154 291.566C92.2217 291.566 92.5737 291.677 92.8639 291.731C93.7399 291.82 94.7287 291.648 95.6154 291.634C96.4725 291.459 97.5607 291.498 98.4447 291.487C99.0574 291.434 99.6968 291.652 100.312 291.63C101.543 291.57 102.816 291.584 104.036 291.555C104.665 291.448 105.31 291.212 105.96 291.326C106.712 291.498 107.398 291.691 108.142 291.383C108.951 291.162 109.805 291.308 110.574 291.28L112.446 291.283C113.081 291.258 113.674 291.444 114.309 291.401C114.609 291.398 114.841 291.348 115.187 291.276C115.84 291.155 116.536 291.23 117.17 291.383C117.925 291.53 118.683 291.147 119.441 291.172C120.518 291.158 121.633 291.165 122.721 291.197C125.196 291.162 127.706 291.434 130.183 291.351C132.964 291.051 135.844 291.387 138.636 291.323C139.52 291.312 141.054 291.305 141.917 291.312C142.379 291.333 142.804 291.155 143.274 291.119C143.999 291.112 144.464 291.044 145.176 291.011C145.767 290.943 146.455 291.201 147.057 291.215C148.911 291.108 150.795 291.065 152.646 291.108C153.296 291.058 153.952 290.94 154.613 291.044C155.207 291.183 155.733 291.326 156.322 291.215C157.195 290.961 158.299 291.133 159.202 291.172C160.758 291.158 162.367 290.986 163.912 291.151C164.528 291.212 165.092 291.122 165.707 291.036C166.363 290.972 166.994 291.079 167.637 291.133C168.733 291.172 169.856 290.947 170.952 291.298C171.355 291.351 171.766 291.341 172.175 291.233C172.841 291.061 173.462 291.162 174.126 291.097C175.421 291.044 176.538 291.262 177.903 291.269C178.785 291.23 179.749 291.494 180.612 291.355C181.047 291.226 181.668 291.147 182.125 291.205C182.589 291.237 183.035 291.43 183.492 291.416L185.352 291.441C185.658 291.441 185.87 291.38 186.193 291.29C187.192 291.036 188.103 291.419 189.076 291.355C190.008 291.251 190.981 291.276 191.905 291.337C192.862 291.387 193.802 291.244 194.761 291.416C195.686 291.623 196.588 291.477 197.518 291.523C198.155 291.541 198.743 291.702 199.372 291.67C200.264 291.544 201.304 291.505 202.199 291.663C204.013 291.723 205.985 291.68 207.807 291.734C207.914 291.738 208 291.856 208 291.999C207.997 292.138 207.911 292.253 207.807 292.256C205.947 292.303 204.023 292.457 202.175 292.457C201.191 292.335 200.372 292.417 199.396 292.578C198.776 292.639 198.123 292.503 197.51 292.511C196.572 292.507 195.586 292.689 194.654 292.507C193.488 292.382 192.147 292.586 190.954 292.489C189.995 292.439 189.084 292.689 188.119 292.593C187.517 292.518 186.937 292.435 186.386 292.582C186.093 292.679 185.696 292.782 185.376 292.782L183.49 292.804C183.009 292.836 182.533 292.661 182.068 292.625C181.585 292.596 181.316 292.646 180.789 292.793C179.798 292.997 178.865 292.739 177.885 292.797L176.95 292.768C176.036 292.8 175.082 292.582 174.177 292.675C173.602 292.743 172.951 292.661 172.392 292.811C172.075 292.9 171.68 292.951 171.35 292.943C170.692 292.968 170.16 292.679 169.496 292.732C168.878 292.743 168.233 292.822 167.602 292.797C166.997 292.768 166.384 292.646 165.791 292.711C165.162 292.815 164.485 292.893 163.851 292.836C162.284 292.682 160.761 292.865 159.199 292.883C158.232 292.868 157.453 292.661 156.478 292.922C155.811 293.044 155.107 292.936 154.468 292.754C153.565 292.654 152.627 292.908 151.719 292.822C150.478 292.757 149.269 292.811 148.035 292.872C147.385 292.936 146.654 292.951 146.02 292.765C145.461 292.643 144.9 292.714 144.292 292.772C143.588 292.782 143.113 292.815 142.452 292.968C141.877 293.029 141.095 292.983 140.517 292.986C137.766 293.047 134.837 292.847 132.091 292.84C131.137 292.793 130.213 292.99 129.275 292.936C127.413 292.933 125.516 292.75 123.654 292.693C122.251 292.661 120.862 292.586 119.451 292.582C118.645 292.582 117.879 292.922 117.063 292.739C116.458 292.596 115.915 292.496 115.319 292.596C115.047 292.646 114.661 292.718 114.335 292.711C113.717 292.747 113.075 292.55 112.457 292.553L110.582 292.514C109.797 292.528 109.064 292.375 108.338 292.546C107.559 292.85 106.664 292.693 105.888 292.464C105.283 292.346 104.697 292.589 104.09 292.646C102.811 292.639 101.588 292.578 100.32 292.6C99.6861 292.611 99.095 292.367 98.4528 292.396L97.5124 292.371C97.2034 292.364 96.8836 292.353 96.588 292.357C95.6825 292.464 94.7018 292.464 93.7802 292.503C92.8693 292.596 91.9181 292.063 91.0207 292.292C90.4 292.471 89.7041 292.518 89.0753 292.307C88.7717 292.196 88.503 292.146 88.194 292.142C88.0865 292.138 88.0005 292.024 88.0005 291.877C87.9925 291.727 88.0784 291.612 88.1859 291.612Z" fill="#626493"/>
<path d="M152.062 301.306C152.275 301.283 152.467 301.457 152.679 301.419C152.879 301.399 153.099 301.244 153.305 301.283C153.407 301.283 153.525 301.338 153.621 301.365C153.913 301.41 154.243 301.324 154.538 301.317C154.824 301.229 155.187 301.249 155.482 301.244C155.686 301.217 155.899 301.326 156.104 301.315C156.514 301.285 156.939 301.292 157.345 301.278C157.555 301.224 157.77 301.106 157.987 301.163C158.237 301.249 158.466 301.346 158.714 301.192C158.984 301.081 159.268 301.154 159.525 301.14L160.149 301.142C160.36 301.129 160.558 301.222 160.77 301.201C160.87 301.199 160.947 301.174 161.062 301.138C161.28 301.077 161.512 301.115 161.723 301.192C161.975 301.265 162.228 301.074 162.48 301.086C162.839 301.079 163.211 301.083 163.574 301.099C164.399 301.081 165.235 301.217 166.061 301.176C166.988 301.025 167.948 301.194 168.879 301.161C169.173 301.156 169.685 301.152 169.972 301.156C170.126 301.167 170.268 301.077 170.425 301.059C170.666 301.056 170.821 301.022 171.059 301.006C171.256 300.972 171.485 301.101 171.686 301.108C172.304 301.054 172.932 301.033 173.549 301.054C173.765 301.029 173.984 300.97 174.204 301.022C174.402 301.092 174.578 301.163 174.774 301.108C175.065 300.981 175.433 301.067 175.734 301.086C176.253 301.079 176.789 300.993 177.304 301.075C177.509 301.106 177.697 301.061 177.902 301.018C178.121 300.986 178.331 301.04 178.546 301.067C178.911 301.086 179.285 300.973 179.651 301.149C179.785 301.176 179.922 301.17 180.058 301.117C180.28 301.031 180.487 301.081 180.709 301.049C181.14 301.022 181.513 301.131 181.968 301.134C182.262 301.115 182.583 301.247 182.871 301.177C183.016 301.113 183.223 301.074 183.375 301.102C183.53 301.118 183.678 301.215 183.831 301.208L184.451 301.22C184.553 301.22 184.623 301.19 184.731 301.145C185.064 301.018 185.368 301.21 185.692 301.177C186.003 301.126 186.327 301.138 186.635 301.168C186.954 301.194 187.267 301.122 187.587 301.208C187.895 301.312 188.196 301.238 188.506 301.262C188.718 301.27 188.914 301.351 189.124 301.335C189.421 301.272 189.768 301.253 190.066 301.331C190.671 301.362 191.328 301.34 191.936 301.367C191.971 301.369 192 301.428 192 301.499C191.999 301.569 191.97 301.626 191.936 301.628C191.316 301.651 190.674 301.728 190.058 301.728C189.73 301.668 189.457 301.709 189.132 301.789C188.925 301.82 188.708 301.752 188.503 301.755C188.191 301.753 187.862 301.845 187.551 301.753C187.163 301.691 186.716 301.793 186.318 301.745C185.998 301.719 185.695 301.845 185.373 301.796C185.172 301.759 184.979 301.718 184.795 301.791C184.698 301.839 184.565 301.891 184.459 301.891L183.83 301.902C183.67 301.918 183.511 301.83 183.356 301.812C183.195 301.798 183.105 301.823 182.93 301.897C182.599 301.999 182.288 301.87 181.962 301.898L181.65 301.884C181.345 301.9 181.027 301.791 180.726 301.838C180.534 301.872 180.317 301.83 180.131 301.906C180.025 301.95 179.893 301.975 179.783 301.972C179.564 301.984 179.387 301.839 179.165 301.866C178.959 301.872 178.744 301.911 178.534 301.898C178.332 301.884 178.128 301.823 177.93 301.855C177.721 301.907 177.495 301.947 177.284 301.918C176.761 301.841 176.254 301.932 175.733 301.941C175.411 301.934 175.151 301.83 174.826 301.961C174.604 302.022 174.369 301.968 174.156 301.877C173.855 301.827 173.542 301.954 173.24 301.911C172.826 301.879 172.423 301.906 172.012 301.936C171.795 301.968 171.551 301.975 171.34 301.882C171.154 301.821 170.967 301.857 170.764 301.886C170.529 301.891 170.371 301.907 170.151 301.984C169.959 302.015 169.698 301.991 169.506 301.993C168.589 302.024 167.612 301.923 166.697 301.92C166.379 301.897 166.071 301.995 165.758 301.968C165.138 301.966 164.505 301.875 163.885 301.846C163.417 301.83 162.954 301.793 162.484 301.791C162.215 301.791 161.96 301.961 161.688 301.87C161.486 301.798 161.305 301.748 161.106 301.798C161.016 301.823 160.887 301.859 160.778 301.855C160.572 301.873 160.358 301.775 160.152 301.777L159.527 301.757C159.266 301.764 159.021 301.687 158.779 301.773C158.52 301.925 158.221 301.846 157.963 301.732C157.761 301.673 157.566 301.795 157.363 301.823C156.937 301.82 156.529 301.789 156.107 301.8C155.895 301.805 155.698 301.684 155.484 301.698L155.171 301.685C155.068 301.682 154.961 301.677 154.863 301.678C154.561 301.732 154.234 301.732 153.927 301.752C153.623 301.798 153.306 301.532 153.007 301.646C152.8 301.736 152.568 301.759 152.358 301.653C152.257 301.598 152.168 301.573 152.065 301.571C152.029 301.569 152 301.512 152 301.439C151.997 301.363 152.026 301.306 152.062 301.306Z" fill="#626493"/>
<path d="M189.022 297.306C189.096 297.283 189.163 297.457 189.238 297.419C189.308 297.399 189.385 297.244 189.457 297.283C189.493 297.283 189.534 297.338 189.567 297.365C189.67 297.41 189.785 297.324 189.888 297.317C189.988 297.229 190.115 297.249 190.219 297.244C190.29 297.217 190.365 297.326 190.436 297.315C190.58 297.285 190.729 297.292 190.871 297.278C190.944 297.224 191.019 297.106 191.095 297.163C191.183 297.249 191.263 297.346 191.35 297.192C191.444 297.081 191.544 297.154 191.634 297.14L191.852 297.142C191.926 297.129 191.995 297.222 192.069 297.201C192.104 297.199 192.131 297.174 192.172 297.138C192.248 297.077 192.329 297.115 192.403 297.192C192.491 297.265 192.58 297.074 192.668 297.086C192.794 297.079 192.924 297.083 193.051 297.099C193.34 297.081 193.632 297.217 193.921 297.176C194.246 297.025 194.582 297.194 194.908 297.161C195.011 297.156 195.19 297.152 195.29 297.156C195.344 297.167 195.394 297.077 195.449 297.059C195.533 297.056 195.587 297.022 195.671 297.006C195.74 296.972 195.82 297.101 195.89 297.108C196.106 297.054 196.326 297.033 196.542 297.054C196.618 297.029 196.694 296.97 196.772 297.022C196.841 297.092 196.902 297.163 196.971 297.108C197.073 296.981 197.202 297.067 197.307 297.086C197.488 297.079 197.676 296.993 197.856 297.075C197.928 297.106 197.994 297.061 198.066 297.018C198.142 296.986 198.216 297.04 198.291 297.067C198.419 297.086 198.55 296.973 198.678 297.149C198.725 297.176 198.773 297.17 198.82 297.117C198.898 297.031 198.971 297.081 199.048 297.049C199.199 297.022 199.329 297.131 199.489 297.134C199.592 297.115 199.704 297.247 199.805 297.177C199.856 297.113 199.928 297.074 199.981 297.102C200.035 297.118 200.087 297.215 200.141 297.208L200.358 297.22C200.393 297.22 200.418 297.19 200.456 297.145C200.572 297.018 200.679 297.21 200.792 297.177C200.901 297.126 201.014 297.138 201.122 297.168C201.234 297.194 201.344 297.122 201.455 297.208C201.563 297.312 201.669 297.238 201.777 297.262C201.851 297.27 201.92 297.351 201.993 297.335C202.097 297.272 202.219 297.253 202.323 297.331C202.535 297.362 202.765 297.34 202.977 297.367C202.99 297.369 203 297.428 203 297.499C203 297.569 202.99 297.626 202.977 297.628C202.761 297.651 202.536 297.728 202.32 297.728C202.206 297.668 202.11 297.709 201.996 297.789C201.924 297.82 201.848 297.752 201.776 297.755C201.667 297.753 201.552 297.845 201.443 297.753C201.307 297.691 201.15 297.793 201.011 297.745C200.899 297.719 200.793 297.845 200.681 297.796C200.61 297.759 200.543 297.718 200.478 297.791C200.444 297.839 200.398 297.891 200.361 297.891L200.14 297.902C200.084 297.918 200.029 297.83 199.975 297.812C199.918 297.798 199.887 297.823 199.825 297.897C199.71 297.999 199.601 297.87 199.487 297.898L199.377 297.884C199.271 297.9 199.16 297.791 199.054 297.838C198.987 297.872 198.911 297.83 198.846 297.906C198.809 297.95 198.763 297.975 198.724 297.972C198.647 297.984 198.585 297.839 198.508 297.866C198.436 297.872 198.361 297.911 198.287 297.898C198.216 297.884 198.145 297.823 198.076 297.855C198.002 297.907 197.923 297.947 197.849 297.918C197.666 297.841 197.489 297.932 197.307 297.941C197.194 297.934 197.103 297.83 196.989 297.961C196.911 298.022 196.829 297.968 196.755 297.877C196.649 297.827 196.54 297.954 196.434 297.911C196.289 297.879 196.148 297.906 196.004 297.936C195.928 297.968 195.843 297.975 195.769 297.882C195.704 297.821 195.638 297.857 195.567 297.886C195.485 297.891 195.43 297.907 195.353 297.984C195.286 298.015 195.194 297.991 195.127 297.993C194.806 298.024 194.464 297.923 194.144 297.92C194.033 297.897 193.925 297.995 193.815 297.968C193.598 297.966 193.377 297.875 193.16 297.846C192.996 297.83 192.834 297.793 192.669 297.791C192.575 297.791 192.486 297.961 192.391 297.87C192.32 297.798 192.257 297.748 192.187 297.798C192.156 297.823 192.11 297.859 192.072 297.855C192 297.873 191.925 297.775 191.853 297.777L191.635 297.757C191.543 297.764 191.457 297.687 191.373 297.773C191.282 297.925 191.177 297.846 191.087 297.732C191.016 297.673 190.948 297.795 190.877 297.823C190.728 297.82 190.585 297.789 190.437 297.8C190.363 297.805 190.294 297.684 190.219 297.698L190.11 297.685C190.074 297.682 190.036 297.677 190.002 297.678C189.896 297.732 189.782 297.732 189.674 297.752C189.568 297.798 189.457 297.532 189.352 297.646C189.28 297.736 189.199 297.759 189.125 297.653C189.09 297.598 189.059 297.573 189.023 297.571C189.01 297.569 189 297.512 189 297.439C188.999 297.363 189.009 297.306 189.022 297.306Z" fill="#626493"/>
<path d="M206.618 72.5395L206.208 74.2657L205.931 76.039L205.584 77.7966L205.276 79.562L204.874 81.3196L204.464 83.0693L203.974 84.7956L203.248 86.4511L202.641 88.1381L201.97 89.8173L201.023 91.3551L200.068 92.8773L199.089 94.2112L198.087 95.5216L197.377 97.0202L196.596 98.4718L195.815 99.9156L195.467 101.461L195.104 99.8842L194.828 98.2757L194.434 96.6907L194.276 95.0586L193.865 93.4737L193.629 91.7945L192.074 92.7361L190.559 93.6228L189.075 94.5643L187.513 95.3882L186.061 96.3847L184.585 97.3576L182.967 98.0874L181.539 99.1074L182.399 100.575L183.283 102.081L184.127 103.603L184.972 105.133L185.887 106.632L186.613 108.225L187.252 109.771L187.947 111.293L188.752 112.76L189.478 114.274L190.377 115.695L191.427 116.997L192.587 118.206L193.984 119.124L195.523 119.885L197.18 120.324L198.813 120.073L200.163 119.1L201.315 117.845L202.159 116.307L203.209 114.902L204.061 113.38L204.969 111.881L205.734 110.304L206.578 108.782L207.415 107.244L208.125 105.643L208.922 104.082L209.625 102.481L210.232 100.841L210.911 99.2251L211.424 97.4596L211.716 95.6393L212.063 93.8425L212.41 92.0378L212.647 90.2174L212.86 88.3892L213.081 86.561L213.286 84.7328L213.476 82.9046L213.594 81.0685L213.736 79.2325L214.138 77.4592L214.525 75.5368L214.643 73.5752L214.833 71.6371L214.999 69.6442L213.01 69.087L211.092 68.3809L209.167 67.5884L208.307 69.2675L207.431 70.8917L206.618 72.5395Z" fill="white"/>
<path d="M137.434 42.5507L137.821 44.3554L138.018 46.1914L138.034 48.0432L138.042 49.8871L137.797 51.5741L137.213 53.1669L136.274 54.5636L134.948 55.5836L133.654 56.4388L134.159 57.9296L135.217 59.3342L136.464 60.5817L137.695 61.8293L139.052 62.9514L140.457 64.0106L141.94 64.96L143.448 65.8781L145.049 66.6078L146.47 67.1178L147.953 67.4316L149.492 66.9923L150.936 66.3018L152.404 65.3288L153.785 64.2382L155.056 63.022L156.176 61.6645L157.242 60.2757L158.204 58.8085L159.049 57.2705L159.727 55.662L160.343 54.0221L160.761 52.2959L158.567 52.0605L156.571 51.1504L155.537 50.1146L155.206 48.5532L154.969 46.6936L154.748 44.8418L154.574 42.9744L154.448 41.1148L154.211 39.2944L153.249 40.6048L152.246 41.9308L151.063 43.1078L149.753 44.1357L148.222 44.8105L146.572 45.0459L144.781 44.8105L143.108 44.1357L141.475 43.351L139.81 42.6605L138.058 42.1976L137.458 42.7469L137.434 42.5507Z" fill="white"/>
<path d="M137.434 42.5507L137.821 44.3554L138.018 46.1914L138.034 48.0432L138.042 49.8871L137.797 51.5741L137.213 53.1669L136.274 54.5636L134.948 55.5836L133.654 56.4388L134.159 57.9296L135.217 59.3342L136.464 60.5817L137.695 61.8293L139.052 62.9514L140.457 64.0106L141.94 64.96L143.448 65.8781L145.049 66.6078L146.47 67.1178L147.953 67.4316L149.492 66.9923L150.936 66.3018L152.404 65.3288L153.785 64.2382L155.056 63.022L156.176 61.6645L157.242 60.2757L158.204 58.8085L159.049 57.2705L159.727 55.662L160.343 54.0221L160.761 52.2959L158.567 52.0605L156.571 51.1504L155.537 50.1146L155.206 48.5532L154.969 46.6936L154.748 44.8418L154.574 42.9744L154.448 41.1148L154.211 39.2944L153.249 40.6048L152.246 41.9308L151.063 43.1078L149.753 44.1357L148.222 44.8105L146.572 45.0459L144.781 44.8105L143.108 44.1357L141.475 43.351L139.81 42.6605L138.058 42.1976L137.458 42.7469L137.434 42.5507Z" stroke="#626493" stroke-width="1.47512" stroke-linecap="round" stroke-linejoin="round"/>
<path d="M178.232 92.1555L179.014 93.6541L179.661 95.2077L180.481 96.6907L181.113 98.2521L181.862 99.7665L182.47 101.344L183.196 102.866L183.954 104.372L184.688 105.895L185.311 107.456L186.171 109.072L186.937 110.728L187.678 112.399L188.657 113.945L189.549 115.538L190.756 116.911L191.987 118.253L193.526 119.249L195.175 120.026L196.919 120.403L198.687 120.246L200.131 119.069L201.323 117.601L202.459 116.087L203.524 114.722L204.337 113.2L205.331 111.787L206.247 110.336L207.075 108.829L207.754 107.252L208.338 105.636L208.748 103.972L209.324 102.348L209.695 100.669L210.019 98.8877L210.532 97.1379L210.784 95.3411L211.116 93.56L211.526 91.7945L211.676 89.982L212.126 88.2166L212.418 86.4197L212.734 84.6307L212.962 82.9124L213.239 81.2019L213.515 79.4835L213.886 77.7887L214.478 76.1566L214.943 74.4854" stroke="#626493" stroke-width="1.5" stroke-linecap="round" stroke-linejoin="round"/>
<path d="M130.545 26.2776L130.829 27.941L131.31 29.5495L131.65 31.1973L132.084 32.8293L132.336 34.5006L132.841 36.117L133.291 37.749L134.159 39.1692L135.13 40.5266L136.313 41.7036L137.497 42.8806L138.839 43.8771L140.085 44.9834L141.38 45.9093L142.761 46.7175L144.418 46.9685L146.099 46.8979L147.598 46.741L149.074 46.3722L150.976 44.5597L152.333 43.1866L153.848 41.9939L155.213 40.6443L156.452 39.1771L157.099 37.3724L157.581 35.5206L157.754 33.6061L157.928 31.6838L158.078 29.7692L158.101 27.8469L158.212 25.9402L158.433 24.0492L158.685 22.1582L158.867 20.2594L158.496 18.3841L158.094 16.6736L157.573 14.9945L156.965 13.3389L156.2 11.7539L155.261 10.2709L153.958 9.10965L152.357 8.11315L150.581 7.49329L148.742 7.07744L146.904 6.63019L145.01 6.55957L143.131 6.62234L141.53 6.81065L139.991 7.32851L138.412 7.6816L136.897 8.24654L135.287 9.21166L133.97 10.5377L132.817 11.9971L131.87 13.6056L131.137 15.3083L130.592 17.0816L130.458 18.9255L130.363 20.7694L130.174 22.6133L130.237 24.4651L130.545 26.2776Z" fill="white"/>
<path d="M130.545 26.2776L130.829 27.941L131.31 29.5495L131.65 31.1973L132.084 32.8293L132.336 34.5006L132.841 36.117L133.291 37.749L134.159 39.1692L135.13 40.5266L136.313 41.7036L137.497 42.8806L138.839 43.8771L140.085 44.9834L141.38 45.9093L142.761 46.7175L144.418 46.9685L146.099 46.8979L147.598 46.741L149.074 46.3722L150.976 44.5597L152.333 43.1866L153.848 41.9939L155.213 40.6443L156.452 39.1771L157.099 37.3724L157.581 35.5206L157.754 33.6061L157.928 31.6838L158.078 29.7692L158.101 27.8469L158.212 25.9402L158.433 24.0492L158.685 22.1582L158.867 20.2594L158.496 18.3841L158.094 16.6736L157.573 14.9945L156.965 13.3389L156.2 11.7539L155.261 10.2709L153.958 9.10965L152.357 8.11315L150.581 7.49329L148.742 7.07744L146.904 6.63019L145.01 6.55957L143.131 6.62234L141.53 6.81065L139.991 7.32851L138.412 7.6816L136.897 8.24654L135.287 9.21166L133.97 10.5377L132.817 11.9971L131.87 13.6056L131.137 15.3083L130.592 17.0816L130.458 18.9255L130.363 20.7694L130.174 22.6133L130.237 24.4651L130.545 26.2776Z" stroke="#626493" stroke-width="1.5" stroke-linecap="round" stroke-linejoin="round"/>
<path d="M130.868 25.618L129.59 24.7627L128.793 25.8298L128.635 27.1951L128.753 28.4662L128.99 29.7295L129.361 30.9535L129.889 32.1226L130.513 33.2447L131.231 34.3118L132.099 35.269L133.078 36.1243L132.77 34.8767L132.486 33.637L132.194 32.3973L131.949 31.1497L131.72 29.9021L131.499 28.6467L131.278 27.3991L131.081 26.1437L131.121 25.9475L130.868 25.618Z" fill="white"/>
<path d="M130.868 25.618L129.59 24.7627L128.793 25.8298L128.635 27.1951L128.753 28.4662L128.99 29.7295L129.361 30.9535L129.889 32.1226L130.513 33.2447L131.231 34.3118L132.099 35.269L133.078 36.1243L132.77 34.8767L132.486 33.637L132.194 32.3973L131.949 31.1497L131.72 29.9021L131.499 28.6467L131.278 27.3991L131.081 26.1437L131.121 25.9475L130.868 25.618Z" stroke="#626493" stroke-linecap="round" stroke-linejoin="round"/>
<path d="M158.812 24.5506L158.86 26.3867L158.82 28.2306L158.591 30.0588L158.284 31.8792L158.094 33.5034L157.85 35.104L159.191 33.7388L160.225 32.2401L161.077 30.6394L161.708 28.9368L162.032 27.1478L162 25.3431L161.748 24.3859L160.225 23.6797L158.812 24.5506Z" fill="white"/>
<path d="M158.812 24.5506L158.86 26.3867L158.82 28.2306L158.591 30.0588L158.284 31.8792L158.094 33.5034L157.85 35.104L159.191 33.7388L160.225 32.2401L161.077 30.6394L161.708 28.9368L162.032 27.1478L162 25.3431L161.748 24.3859L160.225 23.6797L158.812 24.5506Z" stroke="#626493" stroke-linecap="round" stroke-linejoin="round"/>
<path d="M147.345 22.6522C148.134 22.0873 149.033 22.0873 149.917 21.9774C150.328 21.8284 150.801 21.8441 151.227 21.9068C152.237 22.1658 153.2 22.511 154.123 22.9896L153.95 22.9504L154.202 22.9896L153.539 23.6017L153.555 23.3976C153.602 22.6993 154.652 22.6758 154.731 23.3741C154.834 23.7664 154.652 24.1901 154.194 24.198C154.139 24.198 153.902 24.1901 153.839 24.198C153.295 24.0646 152.766 23.8449 152.237 23.6723L152.316 23.6958C151.827 23.586 151.338 23.4526 150.848 23.327L151.03 23.3506C150.777 23.3427 150.525 23.3663 150.28 23.327C150.075 23.2486 149.751 23.1544 149.531 23.1623L149.641 23.1544C148.931 23.28 148.244 23.5232 147.471 23.2878C147.195 23.2172 147.132 22.8327 147.36 22.6679L147.345 22.6522Z" fill="#626493"/>
<path d="M134.422 24.5978C134.658 23.9779 135.108 23.6091 135.566 23.2403C135.874 23.0363 136.26 23.0442 136.552 22.7931C136.671 22.6989 136.797 22.6048 136.939 22.5655C137.712 22.2831 138.573 22.3615 139.385 22.3145C139.969 22.3772 140.545 22.44 141.129 22.5342C141.453 22.5891 141.666 22.8872 141.619 23.2089C141.571 23.4914 141.335 23.6954 141.05 23.7033C140.466 23.719 139.875 23.7111 139.291 23.7033H139.385C138.801 23.7739 138.217 23.8131 137.641 23.8602L137.823 23.821L137.412 23.9622C136.963 24.0563 136.568 24.0014 136.118 24.2211L136.316 24.1034C136.032 24.4487 134.359 25.7747 134.422 24.5899V24.5978Z" fill="#626493"/>
<path d="M143.348 27.1797L143.308 29.2747L142.582 31.2441L142.164 32.6094L143.356 33.4176L144.902 33.8099" stroke="#626493" stroke-linecap="round" stroke-linejoin="round"/>
<path d="M140.586 37.7172L142.133 38.3527L143.79 38.643L145.471 38.6116L147.041 38.1958L148.485 37.4661L149.7 36.3911L150.284 36.8697H150.348" stroke="#626493" stroke-linecap="round" stroke-linejoin="round"/>
<path d="M136.635 52.2881L137.519 53.9829L139.049 55.1207L140.833 55.8112L142.719 56.1485L143.666 56.3212L144.897 58.2828L145.599 60.0404L146.16 61.8529L146.712 63.6105L147.257 61.7587L147.675 59.8207L148.33 57.9611L148.858 56.0544L151.131 55.615L152.67 54.4459L154.209 53.2846L155.511 51.8644L156.679 50.3422L157.018 49.9106L158.644 50.9935L160.475 51.6369L162.392 51.8801L161.8 53.6691L161.09 55.411L160.443 57.1843L159.622 58.8869L158.62 60.4876L157.523 62.1667L156.213 63.6732L155.037 65.2975L153.956 66.702L153.057 68.232L152.173 69.7699L151.328 71.3235L150.579 72.9791L149.869 74.6425L149.19 76.3216L148.519 78.0086L147.84 79.6956L147.43 81.4611L146.901 83.1951L146.444 84.9684L145.986 83.305L145.386 81.7043L144.668 80.1507L143.792 78.6913L142.972 77.1848L141.977 75.7959L140.92 74.4464L140.004 72.9948L138.947 71.653L137.968 70.2485L137.092 68.7734L136.13 67.3611L135.38 65.6192L134.646 63.8851L134.062 62.0883L133.549 60.2758L133.194 58.4162L133.123 56.894L133.731 55.4659L135.056 53.7162L136.445 52.037L136.911 52.8766L136.635 52.2881Z" fill="#BCBDD2"/>
<path d="M136.635 52.2881L137.519 53.9829L139.049 55.1207L140.833 55.8112L142.719 56.1485L143.666 56.3212L144.897 58.2828L145.599 60.0404L146.16 61.8529L146.712 63.6105L147.257 61.7587L147.675 59.8207L148.33 57.9611L148.858 56.0544L151.131 55.615L152.67 54.4459L154.209 53.2846L155.511 51.8644L156.679 50.3422L157.018 49.9106L158.644 50.9935L160.475 51.6369L162.392 51.8801L161.8 53.6691L161.09 55.411L160.443 57.1843L159.622 58.8869L158.62 60.4876L157.523 62.1667L156.213 63.6732L155.037 65.2975L153.956 66.702L153.057 68.232L152.173 69.7699L151.328 71.3235L150.579 72.9791L149.869 74.6425L149.19 76.3216L148.519 78.0086L147.84 79.6956L147.43 81.4611L146.901 83.1951L146.444 84.9684L145.986 83.305L145.386 81.7043L144.668 80.1507L143.792 78.6913L142.972 77.1848L141.977 75.7959L140.92 74.4464L140.004 72.9948L138.947 71.653L137.968 70.2485L137.092 68.7734L136.13 67.3611L135.38 65.6192L134.646 63.8851L134.062 62.0883L133.549 60.2758L133.194 58.4162L133.123 56.894L133.731 55.4659L135.056 53.7162L136.445 52.037L136.911 52.8766L136.635 52.2881Z" stroke="#626493" stroke-linecap="round" stroke-linejoin="round"/>
<path d="M178.357 92.6579L179.825 91.63L181.427 90.8297L182.879 89.8489L184.276 88.7896L185.594 87.6362L186.88 86.4592L187.922 85.2117L188.956 83.9484L189.981 82.6773L191.039 81.4297L191.938 82.897L192.475 84.5447L192.759 86.2552L192.925 87.9736L193.17 89.6841L193.572 91.8732L194.503 93.9133L195.206 95.6081L195.766 97.35L196.168 99.139" fill="white"/>
<path d="M178.357 92.6579L179.825 91.63L181.427 90.8297L182.879 89.8489L184.276 88.7896L185.594 87.6362L186.88 86.4592L187.922 85.2117L188.956 83.9484L189.981 82.6773L191.039 81.4297L191.938 82.897L192.475 84.5447L192.759 86.2552L192.925 87.9736L193.17 89.6841L193.572 91.8732L194.503 93.9133L195.206 95.6081L195.766 97.35L196.168 99.139" stroke="#626493" stroke-width="0.78464" stroke-linecap="round" stroke-linejoin="round"/>
<path d="M184.141 62.292L185.506 63.0531L186.548 64.183L187.219 65.5797L187.866 66.9999L188.568 68.6476L189.199 70.3346L189.633 72.0765L190.17 73.7949L190.77 75.4975L191.338 77.1924L191.796 78.8244L192.395 80.4094L192.814 82.0493L193.256 83.6892L193.729 85.3134L194.195 86.9454L194.589 88.6795L195.102 90.39L195.631 92.0848L196.002 93.8267L196.207 95.6236L194.471 96.369L192.727 97.0516L191.007 97.7813L189.294 98.5346L187.558 99.2408L185.838 99.9626L184.038 100.504L182.287 101.163L181.016 101.297L180.203 100.535L179.193 99.0524L178.475 97.4047L177.82 95.7334L177.347 94.0072L176.889 92.2732L176.565 90.5155L176.218 88.758L175.879 87.0082L175.389 85.282L174.924 83.548L174.719 81.6256L175.105 79.6954L175.824 77.8593L176.502 75.9997L176.905 74.1793L177.402 72.3825L177.978 70.6092L178.365 68.781L178.893 66.9999L179.398 65.2031L179.888 63.7279L180.677 62.3862L181.987 61.6016L183.462 61.6408L184.141 62.292Z" fill="#BCBDD2"/>
<path d="M184.141 62.292L185.506 63.0531L186.548 64.183L187.219 65.5797L187.866 66.9999L188.568 68.6476L189.199 70.3346L189.633 72.0765L190.17 73.7949L190.77 75.4975L191.338 77.1924L191.796 78.8244L192.395 80.4094L192.814 82.0493L193.256 83.6892L193.729 85.3134L194.195 86.9454L194.589 88.6795L195.102 90.39L195.631 92.0848L196.002 93.8267L196.207 95.6236L194.471 96.369L192.727 97.0516L191.007 97.7813L189.294 98.5346L187.558 99.2408L185.838 99.9626L184.038 100.504L182.287 101.163L181.016 101.297L180.203 100.535L179.193 99.0524L178.475 97.4047L177.82 95.7334L177.347 94.0072L176.889 92.2732L176.565 90.5155L176.218 88.758L175.879 87.0082L175.389 85.282L174.924 83.548L174.719 81.6256L175.105 79.6954L175.824 77.8593L176.502 75.9997L176.905 74.1793L177.402 72.3825L177.978 70.6092L178.365 68.781L178.893 66.9999L179.398 65.2031L179.888 63.7279L180.677 62.3862L181.987 61.6016L183.462 61.6408L184.141 62.292Z" stroke="#626493" stroke-width="1.5" stroke-linecap="round" stroke-linejoin="round"/>
<path d="M104.55 102.121L104.305 104.028L104.179 105.832L104.234 107.645L104.21 109.449L103.99 111.254L104.266 113.051L104.313 114.667L104.187 116.284L104.368 117.892L104.51 119.493L104.495 121.109L104.353 122.992L104.21 124.891L103.761 126.743L103.642 128.634L103.39 130.517L103.192 132.243L103.374 133.977L103.169 135.711L103.177 137.445L103.106 139.179L103.137 140.921L103.248 142.655L103.469 144.382L103.634 146.116L103.69 147.85L103.974 149.568L104.1 151.294L104.353 153.115L104.51 154.935L104.455 156.779L104.763 158.591L104.621 160.428L104.518 162.248L103.919 164.076L103.208 165.865L102.766 167.74L101.969 169.506L101.417 171.342L100.951 172.793L100.738 174.3L101.164 176.199L101.906 177.988L102.411 179.596L103.137 181.126L104.187 182.452L105.378 183.621L106.704 184.696L108.393 185.089L110.255 184.916L112.047 184.846L113.941 185.442L115.929 185.112L115.503 183.276L114.083 181.825L112.102 181.409L110.184 180.867L108.211 180.428L108.093 178.741L107.967 177.093L107.572 175.485L107.367 173.845L109.222 173.594L110.674 174.888L111.431 176.693L111.928 178.608L113.491 179.745L115.258 179.832L115.432 178.051L115.393 176.254L115.195 174.457L115.329 172.652L115.061 170.863L114.738 169.098L114.382 167.332L113.814 165.63L113.254 163.974L112.654 162.334L112.189 160.655L111.897 158.701L112.228 156.755L112.354 154.778L113.017 152.911L113.475 151.326L113.68 149.686L114.13 148.093L114.398 146.461L114.722 144.852L114.88 143.205L115.148 141.58L115.59 139.878L115.748 138.128L116.008 136.394L116.221 134.652L116.292 132.887L116.332 131.137L116.134 129.387L116.229 127.622L115.977 125.888L115.692 124.161L115.724 122.412L115.637 120.576L115.913 118.763L116.316 116.982L117.01 115.271L117.334 113.475L117.886 111.733L118.376 109.975L118.66 108.17L119.078 106.405L119.622 104.647L119.599 102.811L119.504 101.069L117.941 100.552L116.276 100.159L114.564 99.9004L112.946 99.2962L111.234 99.0451L109.569 98.6371L107.912 98.0878L106.175 97.7426L104.763 96.7461L104.897 98.488V100.261L104.818 102.035L105.023 102.341L104.55 102.121Z" fill="white"/>
<path d="M104.55 102.121L104.305 104.028L104.179 105.832L104.234 107.645L104.21 109.449L103.99 111.254L104.266 113.051L104.313 114.667L104.187 116.284L104.368 117.892L104.51 119.493L104.495 121.109L104.353 122.992L104.21 124.891L103.761 126.743L103.642 128.634L103.39 130.517L103.192 132.243L103.374 133.977L103.169 135.711L103.177 137.445L103.106 139.179L103.137 140.921L103.248 142.655L103.469 144.382L103.634 146.116L103.69 147.85L103.974 149.568L104.1 151.294L104.353 153.115L104.51 154.935L104.455 156.779L104.763 158.591L104.621 160.428L104.518 162.248L103.919 164.076L103.208 165.865L102.766 167.74L101.969 169.506L101.417 171.342L100.951 172.793L100.738 174.3L101.164 176.199L101.906 177.988L102.411 179.596L103.137 181.126L104.187 182.452L105.378 183.621L106.704 184.696L108.393 185.089L110.255 184.916L112.047 184.846L113.941 185.442L115.929 185.112L115.503 183.276L114.083 181.825L112.102 181.409L110.184 180.867L108.211 180.428L108.093 178.741L107.967 177.093L107.572 175.485L107.367 173.845L109.222 173.594L110.674 174.888L111.431 176.693L111.928 178.608L113.491 179.745L115.258 179.832L115.432 178.051L115.393 176.254L115.195 174.457L115.329 172.652L115.061 170.863L114.738 169.098L114.382 167.332L113.814 165.63L113.254 163.974L112.654 162.334L112.189 160.655L111.897 158.701L112.228 156.755L112.354 154.778L113.017 152.911L113.475 151.326L113.68 149.686L114.13 148.093L114.398 146.461L114.722 144.852L114.88 143.205L115.148 141.58L115.59 139.878L115.748 138.128L116.008 136.394L116.221 134.652L116.292 132.887L116.332 131.137L116.134 129.387L116.229 127.622L115.977 125.888L115.692 124.161L115.724 122.412L115.637 120.576L115.913 118.763L116.316 116.982L117.01 115.271L117.334 113.475L117.886 111.733L118.376 109.975L118.66 108.17L119.078 106.405L119.622 104.647L119.599 102.811L119.504 101.069L117.941 100.552L116.276 100.159L114.564 99.9004L112.946 99.2962L111.234 99.0451L109.569 98.6371L107.912 98.0878L106.175 97.7426L104.763 96.7461L104.897 98.488V100.261L104.818 102.035L105.023 102.341L104.55 102.121Z" stroke="#626493" stroke-width="1.5" stroke-linecap="round" stroke-linejoin="round"/>
<path d="M194.166 106.161L194.119 104.301L194.253 102.45L194.821 100.676L195.618 98.9972L196.487 97.3573L197.394 95.7253L198.436 94.1795L199.312 92.5396L200.109 90.8448L200.835 89.1186L201.466 87.3531L202.105 85.5956L202.713 83.8693L203.297 82.1432L203.849 80.4012L204.512 78.6986L205.033 76.9488L205.719 75.2462L206.351 73.5356" fill="white"/>
<path d="M194.166 106.161L194.119 104.301L194.253 102.45L194.821 100.676L195.618 98.9972L196.487 97.3573L197.394 95.7253L198.436 94.1795L199.312 92.5396L200.109 90.8448L200.835 89.1186L201.466 87.3531L202.105 85.5956L202.713 83.8693L203.297 82.1432L203.849 80.4012L204.512 78.6986L205.033 76.9488L205.719 75.2462L206.351 73.5356" stroke="#626493" stroke-width="1.5" stroke-linecap="round" stroke-linejoin="round"/>
<path d="M111.845 62.7158L110.322 63.2651L109.067 64.2145L108.097 65.4856L107.552 66.9999L106.976 68.734L106.384 70.4759L105.99 72.2727L105.627 74.0696L105.24 75.8664L104.869 77.6632L104.585 79.4757L104.206 81.2804L104.017 83.0145L103.733 84.7328L103.441 86.459L103.307 88.2009L102.975 89.9115L102.723 91.6377L102.423 93.356L102.162 95.0744L101.918 96.7927L101.72 98.5268L101.484 100.253L101.176 101.971L100.971 103.682L102.652 104.263L104.403 104.631L106.171 104.898L107.955 105.141L109.754 105.079L111.553 105.133L113.344 105.055L115.136 104.906L116.935 104.765L118.711 104.467L120.502 104.31L122.27 104.019L120.581 102.513L120.778 101.665L120.683 99.8921L120.549 98.1266L120.486 96.3455L120.368 94.5801L120.17 92.8146L120.06 91.0492L120.163 89.2916L120.234 87.5419L120.32 85.7921L120.399 84.0345L120.494 82.2848L120.557 80.5272L120.384 78.7774L120.415 77.0041L120.036 75.2701L119.673 73.5517L119.184 71.8569L118.482 70.2405L117.606 68.7026L116.462 67.353L115.499 65.9407L114.441 64.6382L112.942 63.9242L111.845 62.7158Z" fill="#BCBDD2"/>
<path d="M111.845 62.7158L110.322 63.2651L109.067 64.2145L108.097 65.4856L107.552 66.9999L106.976 68.734L106.384 70.4759L105.99 72.2727L105.627 74.0696L105.24 75.8664L104.869 77.6632L104.585 79.4757L104.206 81.2804L104.017 83.0145L103.733 84.7328L103.441 86.459L103.307 88.2009L102.975 89.9115L102.723 91.6377L102.423 93.356L102.162 95.0744L101.918 96.7927L101.72 98.5268L101.484 100.253L101.176 101.971L100.971 103.682L102.652 104.263L104.403 104.631L106.171 104.898L107.955 105.141L109.754 105.079L111.553 105.133L113.344 105.055L115.136 104.906L116.935 104.765L118.711 104.467L120.502 104.31L122.27 104.019L120.581 102.513L120.778 101.665L120.683 99.8921L120.549 98.1266L120.486 96.3455L120.368 94.5801L120.17 92.8146L120.06 91.0492L120.163 89.2916L120.234 87.5419L120.32 85.7921L120.399 84.0345L120.494 82.2848L120.557 80.5272L120.384 78.7774L120.415 77.0041L120.036 75.2701L119.673 73.5517L119.184 71.8569L118.482 70.2405L117.606 68.7026L116.462 67.353L115.499 65.9407L114.441 64.6382L112.942 63.9242L111.845 62.7158Z" stroke="#626493" stroke-width="1.5" stroke-linecap="round" stroke-linejoin="round"/>
<path d="M155.438 43.7271L154.814 45.8064L153.496 47.5247L152.202 48.5291L150.766 49.3215L149.235 49.9179L148.951 50.2945L150.182 52.6406L151.011 54.2334L151.516 55.9596L152.029 57.678L152.186 59.467L152.179 61.2559L152.037 63.0371L151.603 64.8888L151.184 66.7641L150.506 68.5531L149.819 70.3421L149.148 72.131L148.414 73.8573L148.012 75.6855L147.507 77.4823L147.207 79.3184L146.923 81.1701L146.734 83.0219L146.639 84.8893L146.631 86.7803L146.623 84.8736V82.9983L146.994 81.1544L147.317 79.3105L147.696 77.4666L148.288 75.6776L149.054 73.9593L149.63 72.1703L150.474 70.4833L151.247 68.7728L152.068 67.078L152.857 65.3753L153.804 63.7511L154.522 62.0092L155.075 60.5498L154.956 58.4705L154.996 56.7992L155.327 55.1671L155.769 53.5586L156.448 52.0286L157.442 50.6711L158.429 49.0626L158.247 47.5247L157.576 45.8064L157.079 44.0409L156.598 43.3818L155.438 43.7271Z" fill="#181C56"/>
<path d="M155.438 43.7271L154.814 45.8064L153.496 47.5247L152.202 48.5291L150.766 49.3215L149.235 49.9179L148.951 50.2945L150.182 52.6406L151.011 54.2334L151.516 55.9596L152.029 57.678L152.186 59.467L152.179 61.2559L152.037 63.0371L151.603 64.8888L151.184 66.7641L150.506 68.5531L149.819 70.3421L149.148 72.131L148.414 73.8573L148.012 75.6855L147.507 77.4823L147.207 79.3184L146.923 81.1701L146.734 83.0219L146.639 84.8893L146.631 86.7803L146.623 84.8736V82.9983L146.994 81.1544L147.317 79.3105L147.696 77.4666L148.288 75.6776L149.054 73.9593L149.63 72.1703L150.474 70.4833L151.247 68.7728L152.068 67.078L152.857 65.3753L153.804 63.7511L154.522 62.0092L155.075 60.5498L154.956 58.4705L154.996 56.7992L155.327 55.1671L155.769 53.5586L156.448 52.0286L157.442 50.6711L158.429 49.0626L158.247 47.5247L157.576 45.8064L157.079 44.0409L156.598 43.3818L155.438 43.7271Z" stroke="#626493" stroke-width="0.78464" stroke-linecap="round" stroke-linejoin="round"/>
<path d="M123.468 286.692L123.76 288.026L123.216 289.242L124.668 289.32L125.899 290.144L126.419 291.368L126.877 292.616L127.871 293.871L129.276 294.656L130.854 294.97L132.464 294.836L134.035 294.436L135.51 293.769L136.978 293.086L138.406 292.325L139.858 291.666L138.833 290.325L138.028 288.834L137.294 287.304L136.773 285.679L136.315 284.047L135.929 282.392L135.581 280.752L134.153 281.238L132.725 281.795L131.273 282.298L129.829 282.823L128.369 283.294L126.909 283.757L125.457 284.267L124.013 284.769L122.561 285.224L123.468 286.692Z" fill="#BCBDD2"/>
<path d="M123.468 286.692L123.76 288.026L123.216 289.242L124.668 289.32L125.899 290.144L126.419 291.368L126.877 292.616L127.871 293.871L129.276 294.656L130.854 294.97L132.464 294.836L134.035 294.436L135.51 293.769L136.978 293.086L138.406 292.325L139.858 291.666L138.833 290.325L138.028 288.834L137.294 287.304L136.773 285.679L136.315 284.047L135.929 282.392L135.581 280.752L134.153 281.238L132.725 281.795L131.273 282.298L129.829 282.823L128.369 283.294L126.909 283.757L125.457 284.267L124.013 284.769L122.561 285.224L123.468 286.692Z" stroke="#626493" stroke-width="1.27112" stroke-linecap="round" stroke-linejoin="round"/>
<path d="M158.558 283.333L158.716 284.839L158.305 286.299L157.769 287.719L157.5 289.21L157.532 290.646L157.745 292.066L157.84 293.69L157.737 295.314L157.54 296.931L157.279 298.523L159.094 298.618L160.609 297.519L161.58 295.942L162.614 294.404L163.821 293.517L165.25 293.078L166.741 293.039L168.193 293.345L169.527 293.941L170.679 294.828L171.673 295.887L172.494 297.08L172.036 295.612L171.705 294.106L171.365 292.607L171.073 291.093L170.868 289.563L170.703 288.033L170.576 286.495L170.529 284.957L170.56 283.419L170.632 281.897H169.116H167.585L166.055 281.795L164.516 281.74L162.993 281.575L161.47 281.379L159.947 281.167L158.424 280.893L158.479 282.195L158.558 283.333Z" fill="#BCBDD2"/>
<path d="M158.558 283.333L158.716 284.839L158.305 286.299L157.769 287.719L157.5 289.21L157.532 290.646L157.745 292.066L157.84 293.69L157.737 295.314L157.54 296.931L157.279 298.523L159.094 298.618L160.609 297.519L161.58 295.942L162.614 294.404L163.821 293.517L165.25 293.078L166.741 293.039L168.193 293.345L169.527 293.941L170.679 294.828L171.673 295.887L172.494 297.08L172.036 295.612L171.705 294.106L171.365 292.607L171.073 291.093L170.868 289.563L170.703 288.033L170.576 286.495L170.529 284.957L170.56 283.419L170.632 281.897H169.116H167.585L166.055 281.795L164.516 281.74L162.993 281.575L161.47 281.379L159.947 281.167L158.424 280.893L158.479 282.195L158.558 283.333Z" stroke="#626493" stroke-width="1.27112" stroke-linecap="round" stroke-linejoin="round"/>
<path d="M117.162 138.45L117.201 140.223L117.106 141.965L117.004 143.715L117.383 145.472L117.28 147.214L117.099 148.956L116.743 150.69L117.091 152.463L116.854 154.197L116.941 155.963L116.609 157.697L116.704 159.462L116.167 161.165L116.128 162.922L115.615 164.617L115.426 166.398L114.921 168.125L114.905 169.937L114.494 171.687L114.163 173.445L114.195 175.265L113.626 176.983L113.208 178.733L112.987 180.506L112.877 182.303L112.451 184.045L112.166 185.818L112.056 187.607L112.001 189.412L111.519 191.154L111.511 192.959L111.054 194.708L110.943 196.505L110.746 198.286L110.596 200.075L110.083 201.817L110.123 203.63L110.186 205.434L109.649 207.192L109.854 209.004L109.76 210.793L109.389 212.567L109.539 214.364L109.618 216.145L109.404 217.941L109.586 219.723L109.61 221.551L110.43 223.222L110.486 225.066L111.117 226.8L111.204 228.62L111.448 230.417L111.425 232.238L111.535 234.05L112.182 235.792L112.664 237.542L112.522 239.417L112.94 241.182L113.54 242.838L113.729 244.588L114.202 246.275L114.707 247.962L114.976 249.696L114.984 251.461L115.126 253.203L115.323 254.937L115.418 256.679L115.923 258.382L116.049 260.124L116.238 261.866L116.017 263.631L116.183 265.365L116.254 267.099L116.688 268.825L116.428 270.583L116.885 272.301L117.012 274.043L117.304 275.769L117.312 277.511L117.43 279.253L117.643 280.987L117.256 282.768L117.927 284.455L117.667 286.237L117.975 287.955L119.766 288.206L121.502 288.881L123.364 288.638L125.164 288.81L126.979 289.093L128.801 288.983L130.593 288.528L132.463 288.763L134.152 287.924L135.983 287.735L137.671 287.068L139.439 286.59L141.033 285.711L142.438 284.714L141.72 283.161L141.301 281.419L140.749 279.716L140.489 277.935L139.81 276.256L139.55 274.475L139.25 272.717L139.202 270.913L138.76 269.171L138.484 267.405L138.255 265.632L137.853 263.882L137.742 262.093L137.845 260.289L137.34 258.539L137.143 256.758L137.395 254.945L136.874 253.188L137.016 251.391L136.874 249.61L136.969 247.805L136.835 246.024L136.235 244.274L136.393 242.469L136.164 240.704L135.975 238.931L135.92 237.173L135.691 235.439L135.296 233.721L135.012 231.994L135.272 230.213L134.878 228.511L134.412 226.816L134.262 225.082L133.923 223.371L133.631 221.653L133.173 219.966L132.897 218.24L132.487 216.506L132.968 214.819L133.426 213.163L134.065 211.554L134.783 209.962L135.359 208.33L135.572 206.596L136.196 204.971L136.606 203.292L136.827 201.566L137.174 199.863L138.169 198.365L138.65 196.615L139.013 194.834L139.66 193.147L140.086 191.381L140.418 189.592L140.828 187.835L141.412 186.124L141.728 184.343L142.493 182.672L142.746 180.883L143.535 179.212L143.519 177.368L144.095 175.634L144.553 173.884L144.75 172.079L144.963 170.541L145.429 171.985L145.579 173.743L145.839 175.485L146.06 177.226L145.728 179.047L146.352 180.742L146.265 182.523L146.66 184.249L146.818 186.007L147.007 187.756L147.236 189.506L147.607 191.232L147.559 193.013L148.127 194.716L147.859 196.521L148.254 198.247L148.838 200.005L148.996 201.809L148.822 203.669L149.627 205.379L149.579 207.223L149.958 208.997L150.258 210.793L150.669 212.567L150.408 214.426L151 216.184L151.087 218.004L151.371 219.801L151.276 221.629L151.063 223.45L151.316 225.254L151.615 226.918L151.537 228.581L151.608 230.245L151.229 231.892L151.363 233.556L150.85 235.204V236.867L150.882 238.609L151.158 240.351L151.221 242.093L150.866 243.842L151.316 245.569L151.323 247.311L150.984 249.076L151.237 250.81L151.489 252.536L151.56 254.278L151.608 256.02L151.884 257.746L151.734 259.512L152.16 261.222L152.231 262.964L152.247 264.714L152.862 266.417L152.712 268.182L152.862 269.916L152.831 271.674L152.933 273.416L153.139 275.15L153.502 276.868L153.722 278.594V280.344L154.117 282.047L154.433 283.31L155.695 283.655L157.495 283.914L159.254 284.495L161.109 284.298L162.892 284.73L164.707 284.887L166.53 284.848L168.369 284.918L170.129 284.369L171.983 284.306L173.696 283.639L175.739 282.635L176.702 281.034L176.126 279.355L175.708 277.645L175.779 275.864L175.708 274.106L175.305 272.38L175.077 270.638L175.353 268.865L175.321 267.115L175.258 265.365L175.124 263.615L175.14 261.858L175.219 260.108L174.65 258.343L175.25 256.601L174.737 254.827L174.824 253.078L175.029 251.32L175.092 249.57L175.242 247.821L175.037 246.063L175.274 244.313L175.132 242.501L175.155 240.68L175.037 238.868L175.345 237.032L174.745 235.243L174.84 233.415L175.013 231.586L174.848 229.774L174.5 227.969L174.84 226.141L174.548 224.344L174.311 222.547L174.216 220.743L174.019 218.938L174.074 217.133L174.114 215.329V213.595L173.94 211.853L174.311 210.134L173.972 208.385L174.461 206.666L174.674 204.924L174.477 203.159L174.729 201.417L174.69 199.659L174.777 197.91L174.579 196.152L174.611 194.402L174.982 192.66L174.895 190.903L175.069 189.161L175.242 187.411L175.258 185.661L175.337 183.912L175.148 182.146L175.661 180.42V178.662L175.558 176.905L175.771 175.163L175.518 173.39L175.645 171.64L175.826 169.898L176.402 168.18L176.221 166.406L176.434 164.696L176.56 162.977L176.379 161.236L176.56 159.517L177.152 157.83L176.947 156.088L176.852 154.354L177.223 152.644L177.27 150.917L177.026 149.191L177.389 147.457L177.049 145.739L176.97 144.013L177.042 142.271L176.339 140.615L176.229 138.889L175.732 137.233L175.384 135.546L175.1 133.844L174.382 132.259L174.003 130.462L172.204 130.995L170.492 131.466L168.732 131.725L166.941 131.694L165.212 132.11L163.476 132.502L161.653 132.188L159.886 132.322L158.15 132.706L156.398 133.012L154.614 132.949L152.878 133.498L151.095 133.357L149.319 133.334L147.559 133.53L145.807 133.906L144.024 133.852L142.256 133.844L140.489 133.906L138.713 133.922L136.945 134.079L135.178 133.985L133.402 133.742L131.634 133.773L129.867 133.985L128.091 134.032L126.324 134.22L124.556 133.718L122.788 133.773L121.013 133.71L119.245 133.797L117.643 134.181L117.596 135.539L117.722 137.124L117.162 138.45Z" fill="#BCBDD2"/>
<path d="M117.162 138.45L117.201 140.223L117.106 141.965L117.004 143.715L117.383 145.472L117.28 147.214L117.099 148.956L116.743 150.69L117.091 152.463L116.854 154.197L116.941 155.963L116.609 157.697L116.704 159.462L116.167 161.165L116.128 162.922L115.615 164.617L115.426 166.398L114.921 168.125L114.905 169.937L114.494 171.687L114.163 173.445L114.195 175.265L113.626 176.983L113.208 178.733L112.987 180.506L112.877 182.303L112.451 184.045L112.166 185.818L112.056 187.607L112.001 189.412L111.519 191.154L111.511 192.959L111.054 194.708L110.943 196.505L110.746 198.286L110.596 200.075L110.083 201.817L110.123 203.63L110.186 205.434L109.649 207.192L109.854 209.004L109.76 210.793L109.389 212.567L109.539 214.364L109.618 216.145L109.404 217.941L109.586 219.723L109.61 221.551L110.43 223.222L110.486 225.066L111.117 226.8L111.204 228.62L111.448 230.417L111.425 232.238L111.535 234.05L112.182 235.792L112.664 237.542L112.522 239.417L112.94 241.182L113.54 242.838L113.729 244.588L114.202 246.275L114.707 247.962L114.976 249.696L114.984 251.461L115.126 253.203L115.323 254.937L115.418 256.679L115.923 258.382L116.049 260.124L116.238 261.866L116.017 263.631L116.183 265.365L116.254 267.099L116.688 268.825L116.428 270.583L116.885 272.301L117.012 274.043L117.304 275.769L117.312 277.511L117.43 279.253L117.643 280.987L117.256 282.768L117.927 284.455L117.667 286.237L117.975 287.955L119.766 288.206L121.502 288.881L123.364 288.638L125.164 288.81L126.979 289.093L128.801 288.983L130.593 288.528L132.463 288.763L134.152 287.924L135.983 287.735L137.671 287.068L139.439 286.59L141.033 285.711L142.438 284.714L141.72 283.161L141.301 281.419L140.749 279.716L140.489 277.935L139.81 276.256L139.55 274.475L139.25 272.717L139.202 270.913L138.76 269.171L138.484 267.405L138.255 265.632L137.853 263.882L137.742 262.093L137.845 260.289L137.34 258.539L137.143 256.758L137.395 254.945L136.874 253.188L137.016 251.391L136.874 249.61L136.969 247.805L136.835 246.024L136.235 244.274L136.393 242.469L136.164 240.704L135.975 238.931L135.92 237.173L135.691 235.439L135.296 233.721L135.012 231.994L135.272 230.213L134.878 228.511L134.412 226.816L134.262 225.082L133.923 223.371L133.631 221.653L133.173 219.966L132.897 218.24L132.487 216.506L132.968 214.819L133.426 213.163L134.065 211.554L134.783 209.962L135.359 208.33L135.572 206.596L136.196 204.971L136.606 203.292L136.827 201.566L137.174 199.863L138.169 198.365L138.65 196.615L139.013 194.834L139.66 193.147L140.086 191.381L140.418 189.592L140.828 187.835L141.412 186.124L141.728 184.343L142.493 182.672L142.746 180.883L143.535 179.212L143.519 177.368L144.095 175.634L144.553 173.884L144.75 172.079L144.963 170.541L145.429 171.985L145.579 173.743L145.839 175.485L146.06 177.226L145.728 179.047L146.352 180.742L146.265 182.523L146.66 184.249L146.818 186.007L147.007 187.756L147.236 189.506L147.607 191.232L147.559 193.013L148.127 194.716L147.859 196.521L148.254 198.247L148.838 200.005L148.996 201.809L148.822 203.669L149.627 205.379L149.579 207.223L149.958 208.997L150.258 210.793L150.669 212.567L150.408 214.426L151 216.184L151.087 218.004L151.371 219.801L151.276 221.629L151.063 223.45L151.316 225.254L151.615 226.918L151.537 228.581L151.608 230.245L151.229 231.892L151.363 233.556L150.85 235.204V236.867L150.882 238.609L151.158 240.351L151.221 242.093L150.866 243.842L151.316 245.569L151.323 247.311L150.984 249.076L151.237 250.81L151.489 252.536L151.56 254.278L151.608 256.02L151.884 257.746L151.734 259.512L152.16 261.222L152.231 262.964L152.247 264.714L152.862 266.417L152.712 268.182L152.862 269.916L152.831 271.674L152.933 273.416L153.139 275.15L153.502 276.868L153.722 278.594V280.344L154.117 282.047L154.433 283.31L155.695 283.655L157.495 283.914L159.254 284.495L161.109 284.298L162.892 284.73L164.707 284.887L166.53 284.848L168.369 284.918L170.129 284.369L171.983 284.306L173.696 283.639L175.739 282.635L176.702 281.034L176.126 279.355L175.708 277.645L175.779 275.864L175.708 274.106L175.305 272.38L175.077 270.638L175.353 268.865L175.321 267.115L175.258 265.365L175.124 263.615L175.14 261.858L175.219 260.108L174.65 258.343L175.25 256.601L174.737 254.827L174.824 253.078L175.029 251.32L175.092 249.57L175.242 247.821L175.037 246.063L175.274 244.313L175.132 242.501L175.155 240.68L175.037 238.868L175.345 237.032L174.745 235.243L174.84 233.415L175.013 231.586L174.848 229.774L174.5 227.969L174.84 226.141L174.548 224.344L174.311 222.547L174.216 220.743L174.019 218.938L174.074 217.133L174.114 215.329V213.595L173.94 211.853L174.311 210.134L173.972 208.385L174.461 206.666L174.674 204.924L174.477 203.159L174.729 201.417L174.69 199.659L174.777 197.91L174.579 196.152L174.611 194.402L174.982 192.66L174.895 190.903L175.069 189.161L175.242 187.411L175.258 185.661L175.337 183.912L175.148 182.146L175.661 180.42V178.662L175.558 176.905L175.771 175.163L175.518 173.39L175.645 171.64L175.826 169.898L176.402 168.18L176.221 166.406L176.434 164.696L176.56 162.977L176.379 161.236L176.56 159.517L177.152 157.83L176.947 156.088L176.852 154.354L177.223 152.644L177.27 150.917L177.026 149.191L177.389 147.457L177.049 145.739L176.97 144.013L177.042 142.271L176.339 140.615L176.229 138.889L175.732 137.233L175.384 135.546L175.1 133.844L174.382 132.259L174.003 130.462L172.204 130.995L170.492 131.466L168.732 131.725L166.941 131.694L165.212 132.11L163.476 132.502L161.653 132.188L159.886 132.322L158.15 132.706L156.398 133.012L154.614 132.949L152.878 133.498L151.095 133.357L149.319 133.334L147.559 133.53L145.807 133.906L144.024 133.852L142.256 133.844L140.489 133.906L138.713 133.922L136.945 134.079L135.178 133.985L133.402 133.742L131.634 133.773L129.867 133.985L128.091 134.032L126.324 134.22L124.556 133.718L122.788 133.773L121.013 133.71L119.245 133.797L117.643 134.181L117.596 135.539L117.722 137.124L117.162 138.45Z" stroke="#626493" stroke-width="1.5" stroke-linecap="round" stroke-linejoin="round"/>
<path d="M117.438 139.069L119.213 139.202L120.989 139.304L122.772 139.352L124.548 139.399L126.323 139.571L128.107 139.579L129.89 139.508L131.666 139.626L133.449 139.563L135.225 139.618L137.008 139.65L138.784 139.579L140.567 139.532L142.382 139.469L144.181 139.195L145.996 139.069L147.804 138.944L149.626 138.849L151.41 138.473L153.209 138.269L154.993 137.924L156.792 137.696L158.56 137.28L160.367 137.045L162.126 136.605L163.918 136.291L165.678 135.829L167.453 135.444L169.173 134.871L170.933 134.416L172.677 133.906L174.374 133.247" stroke="#626493" stroke-width="0.78464" stroke-linecap="round" stroke-linejoin="round"/>
<path d="M176.844 157.438C174.792 156.206 173.009 154.55 171.367 152.824C170.807 152.141 169.742 150.729 169.237 150.007C167.019 146.484 165.457 142.443 165.007 138.3C164.967 137.712 164.936 137.123 164.92 136.535C164.912 136.315 165.252 136.268 165.299 136.488C165.512 137.469 165.843 138.912 166.135 139.885C166.893 142.043 167.935 144.883 169.134 147.002C169.868 148.524 171.383 150.643 172.401 152.071C173.127 152.957 174.895 154.903 175.834 155.947C176.134 156.229 176.71 156.763 177.089 157.147C177.246 157.296 177.033 157.571 176.852 157.446L176.844 157.438Z" fill="#626493"/>
<path d="M116.688 158.481C118.685 156.119 120.602 153.867 122.141 151.294C123.269 149.56 124.185 147.449 125.084 145.574C125.724 143.738 126.631 141.243 127.144 139.053C127.168 138.912 127.302 138.802 127.452 138.842C127.57 138.826 127.854 139.328 127.933 139.391C128.075 139.571 127.815 139.799 127.657 139.65L127.215 139.265L127.641 139.14C127.491 141.509 126.939 143.824 126.252 146.092C125.724 147.292 125.084 148.971 124.453 150.109C123.222 152.502 121.541 154.597 119.647 156.496C118.787 157.288 117.895 158.042 116.956 158.748C116.783 158.881 116.546 158.646 116.688 158.473V158.481Z" fill="#626493"/>
<path d="M141.962 139.642L141.978 141.47L141.954 143.306L141.907 145.142L141.891 146.978L141.852 148.814L141.875 150.65L142.017 152.478L142.033 154.314L142.088 156.151L142.309 157.971L142.451 159.799L142.641 161.627L143.477 164.005L145.71 164.381L145.955 162.577L146.294 160.78L146.5 158.967L146.728 157.155L146.918 155.342L147.044 153.522L147.281 151.709L147.344 149.881L147.502 148.061L147.604 146.241L147.715 144.42L147.794 142.592L147.825 140.764L147.841 138.943" stroke="#626493" stroke-linecap="round" stroke-linejoin="round"/>
<path d="M145.176 170.439L145.042 168.634L144.884 166.83L144.727 165.025L144.821 164.774L144.924 164.899" stroke="#626493" stroke-width="1.41235" stroke-linecap="round" stroke-linejoin="round"/>
<path d="M142.056 170.353C138.426 177.101 134.047 183.464 129.722 189.804C129.241 190.565 128.483 191.554 127.915 192.268C127.876 192.323 127.789 192.331 127.734 192.291C127.678 192.252 127.67 192.182 127.702 192.127C128.199 191.35 128.831 190.314 129.249 189.514C131.253 185.983 133.557 182.64 135.696 179.196C137.661 176.128 139.784 173.185 141.836 170.235C141.914 170.11 142.128 170.219 142.056 170.361V170.353Z" fill="#626493"/>
<path d="M155.22 218.057C157.098 221.039 159.048 224.617 160.8 227.559C161.084 228.014 161.731 228.916 161.825 229.16C162.299 229.615 162.788 230.054 163.254 230.525C163.301 230.572 163.301 230.658 163.254 230.705C163.214 230.745 163.143 230.753 163.096 230.721C162.536 230.368 162.007 229.984 161.462 229.615C160.389 228.399 159.482 227.057 158.645 225.668C157.753 224.318 156.712 222.247 156.041 220.748C155.646 219.917 155.315 219.046 155.007 218.167C154.96 218.034 155.157 217.932 155.236 218.057H155.22Z" fill="#626493"/>
<path d="M132.732 214.669C132.606 217.463 131.327 220.068 129.844 222.398C129.252 223.363 128.763 224.242 128.202 225.23C128.163 225.293 128.084 225.309 128.029 225.278C127.982 225.246 127.958 225.191 127.974 225.136C128.108 224.603 128.281 224.077 128.447 223.551C129.047 222.084 129.915 220.53 130.617 219.11C131.375 217.596 131.88 216.215 132.495 214.614C132.543 214.481 132.756 214.536 132.74 214.677L132.732 214.669Z" fill="#626493"/>
<path d="M121.106 231.005C121.421 231.994 121.792 233.485 122.021 234.521C123.315 238.561 124.744 242.806 126.59 246.698C127.719 249.146 128.958 251.547 130.347 253.862C131.049 255.015 131.822 256.137 132.493 257.322C132.533 257.385 132.509 257.464 132.446 257.495C132.39 257.526 132.319 257.511 132.28 257.463L131.065 255.831C128.958 253.172 127.237 250.135 125.777 247.083C123.805 243.144 122.495 238.938 121.421 234.678V234.654V234.646L121.169 232.857C121.058 232.269 120.956 231.672 120.853 231.076C120.83 230.927 121.058 230.864 121.098 231.021L121.106 231.005Z" fill="#626493"/>
<path d="M155.434 305.279L156.515 306.347L157.628 307.367L158.646 308.489L159.64 309.626L160.532 310.842L161.4 312.2L162.355 313.502L163.499 314.358L164.746 315.056L166.175 315.896L167.769 316.351L169.442 316.406L171.115 316.233L172.732 315.935L174.358 315.652L175.984 315.433L177.609 315.158L179.235 314.938L180.639 314.617L182.044 314.358L183.378 313.84L184.656 313.196L185.366 312.443L185.461 311.502L185.003 309.822L184.096 308.339L182.975 307.021L181.713 305.758L180.245 304.73L178.682 303.859L177.017 302.784L175.889 301.545L175.1 300.062L174.547 298.484L174.105 296.978L173.64 295.479L173.158 293.981L172.693 292.49L172.085 291.368L170.27 290.473L168.621 290.23L166.956 290.12L165.291 290.293L163.657 290.662L162.11 291.305L161.179 291.909L161.187 293.588L160.919 294.946L160.074 296.052L158.725 296.617L157.265 296.586L156.681 296.554L156.279 296.892L155.813 298.249L155.308 299.599L155.032 301.003L154.882 302.431L154.771 303.867L155.434 305.279Z" fill="#BCBDD2"/>
<path d="M155.434 305.279L156.515 306.347L157.628 307.367L158.646 308.489L159.64 309.626L160.532 310.842L161.4 312.2L162.355 313.502L163.499 314.358L164.746 315.056L166.175 315.896L167.769 316.351L169.442 316.406L171.115 316.233L172.732 315.935L174.358 315.652L175.984 315.433L177.609 315.158L179.235 314.938L180.639 314.617L182.044 314.358L183.378 313.84L184.656 313.196L185.366 312.443L185.461 311.502L185.003 309.822L184.096 308.339L182.975 307.021L181.713 305.758L180.245 304.73L178.682 303.859L177.017 302.784L175.889 301.545L175.1 300.062L174.547 298.484L174.105 296.978L173.64 295.479L173.158 293.981L172.693 292.49L172.085 291.368L170.27 290.473L168.621 290.23L166.956 290.12L165.291 290.293L163.657 290.662L162.11 291.305L161.179 291.909L161.187 293.588L160.919 294.946L160.074 296.052L158.725 296.617L157.265 296.586L156.681 296.554L156.279 296.892L155.813 298.249L155.308 299.599L155.032 301.003L154.882 302.431L154.771 303.867L155.434 305.279Z" stroke="#626493" stroke-width="1.5" stroke-linecap="round" stroke-linejoin="round"/>
<path d="M154.914 309.014L154.866 310.309L155.6 311.415L156.752 312.184L157.905 312.945L159.049 313.918L159.948 315.119L160.887 316.28L161.819 317.449L162.9 318.485L164.178 319.238L165.725 319.85L167.374 320.046L168.85 320.313L170.326 320.533L171.817 320.768L173.324 320.847L174.571 320.698L175.786 320.439L177.388 320.125L178.959 319.685L180.505 319.16L182.068 318.697L183.591 318.1L185.335 316.963L185.659 315.566L185.627 313.746L185.509 311.91L183.875 312.459L182.289 313.04L180.655 313.479L179.006 313.848L177.333 314.122L175.676 314.475L173.995 314.664L172.314 314.852L170.988 314.868L169.671 314.844L168.203 314.452L166.79 313.91L165.52 313.094L164.304 312.2L163.215 311.149L162.126 310.105L161.148 308.975L160.154 307.861L159.072 306.825L158.023 305.766L156.855 304.824L155.569 304.055L155.032 304.008L154.811 304.322L154.559 305.884L154.582 307.469L154.914 309.014Z" fill="#BCBDD2"/>
<path d="M154.914 309.014L154.866 310.309L155.6 311.415L156.752 312.184L157.905 312.945L159.049 313.918L159.948 315.119L160.887 316.28L161.819 317.449L162.9 318.485L164.178 319.238L165.725 319.85L167.374 320.046L168.85 320.313L170.326 320.533L171.817 320.768L173.324 320.847L174.571 320.698L175.786 320.439L177.388 320.125L178.959 319.685L180.505 319.16L182.068 318.697L183.591 318.1L185.335 316.963L185.659 315.566L185.627 313.746L185.509 311.91L183.875 312.459L182.289 313.04L180.655 313.479L179.006 313.848L177.333 314.122L175.676 314.475L173.995 314.664L172.314 314.852L170.988 314.868L169.671 314.844L168.203 314.452L166.79 313.91L165.52 313.094L164.304 312.2L163.215 311.149L162.126 310.105L161.148 308.975L160.154 307.861L159.072 306.825L158.023 305.766L156.855 304.824L155.569 304.055L155.032 304.008L154.811 304.322L154.559 305.884L154.582 307.469L154.914 309.014Z" stroke="#626493" stroke-width="1.5" stroke-linecap="round" stroke-linejoin="round"/>
<path d="M167.066 299.057L167.816 298.123L168.85 297.503L170.034 297.15L171.265 296.978L172.646 297.056L174.547 298.186" stroke="#626493" stroke-width="1.27112" stroke-linecap="round" stroke-linejoin="round"/>
<path d="M168.494 303.851L169.331 302.023L170.601 301.324L172.061 300.901L173.568 300.822L175.012 301.222L176.693 302.572" stroke="#626493" stroke-width="1.27112" stroke-linecap="round" stroke-linejoin="round"/>
<path d="M143.092 296.406L143.644 298.124L143.786 299.921L144.165 301.404L144.378 302.871L143.644 304.056L142.429 304.809L141.087 305.366L139.667 305.719L138.317 306.135L136.905 306.308L135.476 306.261L134.064 306.19L132.635 306.159L131.215 306.072L129.795 306.088L128.382 306.261L126.685 306.677L125.099 307.399L123.552 308.215L121.927 308.834L120.538 309.305L119.149 309.8L117.721 310.153L116.261 310.396L114.785 310.521L113.317 310.38L111.597 310.31L109.885 310.349L108.172 310.514L106.594 310.341L105.031 310.051L103.453 309.847L102.017 309.038L100.991 307.767L100.525 306.174L100.754 304.542L101.464 303.036L102.617 301.804L104.092 300.996L105.647 300.384L107.257 299.952L108.898 299.607L110.342 299.136L111.668 298.422L112.962 297.645L114.185 296.767L115.353 295.817L116.411 294.742L117.563 293.761L118.51 292.584L119.536 291.478L120.712 290.168L122.077 289.077L123.75 288.622L125.249 288.755L126.504 289.619L127.269 290.913L127.83 293.102L128.816 293.911L130.008 294.342L131.744 294.397L133.425 293.997L135.074 293.487L136.668 292.812L138.144 291.91L139.627 291.031L139.777 290.34L140.835 290.905L141.734 292.553L142.65 294.185L143.092 296.406Z" fill="#BCBDD2"/>
<path d="M143.092 296.406L143.644 298.124L143.786 299.921L144.165 301.404L144.378 302.871L143.644 304.056L142.429 304.809L141.087 305.366L139.667 305.719L138.317 306.135L136.905 306.308L135.476 306.261L134.064 306.19L132.635 306.159L131.215 306.072L129.795 306.088L128.382 306.261L126.685 306.677L125.099 307.399L123.552 308.215L121.927 308.834L120.538 309.305L119.149 309.8L117.721 310.153L116.261 310.396L114.785 310.521L113.317 310.38L111.597 310.31L109.885 310.349L108.172 310.514L106.594 310.341L105.031 310.051L103.453 309.847L102.017 309.038L100.991 307.767L100.525 306.174L100.754 304.542L101.464 303.036L102.617 301.804L104.092 300.996L105.647 300.384L107.257 299.952L108.898 299.607L110.342 299.136L111.668 298.422L112.962 297.645L114.185 296.767L115.353 295.817L116.411 294.742L117.563 293.761L118.51 292.584L119.536 291.478L120.712 290.168L122.077 289.077L123.75 288.622L125.249 288.755L126.504 289.619L127.269 290.913L127.83 293.102L128.816 293.911L130.008 294.342L131.744 294.397L133.425 293.997L135.074 293.487L136.668 292.812L138.144 291.91L139.627 291.031L139.777 290.34L140.835 290.905L141.734 292.553L142.65 294.185L143.092 296.406Z" stroke="#626493" stroke-width="1.5" stroke-linecap="round" stroke-linejoin="round"/>
<path d="M101.228 309.98L101.205 311.274L101.647 312.522L102.578 313.495L103.817 314.036L105.119 314.389L106.452 314.546L107.975 314.703L109.491 314.939L111.022 314.962L112.552 314.994L114.083 314.962L115.614 314.97L117.129 314.711L118.637 314.46L120.136 314.123L121.588 313.62L123.19 312.93L124.737 312.106L126.331 311.408L127.98 310.827L129.716 310.67L131.413 310.756L133.109 310.898L134.79 310.874L136.132 310.749L137.45 310.474L138.933 310.301L140.417 310.152L141.861 309.799L143.297 309.43L144.584 308.661L145.388 307.414L145.704 305.696L145.388 303.961L144.789 302.29L144.599 302.133L144.039 302.251L142.729 303.381L141.324 304.37L139.793 305.154L138.223 305.523L136.629 305.829L135.011 305.766L133.394 305.782L131.776 305.68L130.15 305.656L128.532 305.57L126.931 305.821L125.305 306.213L123.679 306.668L122.133 307.328L120.562 307.916L119.031 308.465L117.445 308.842L115.835 309.101L114.218 309.226L112.6 309.36L110.974 309.313L109.356 309.234L107.731 309.132L106.137 308.834L104.574 308.379L102.988 308.002L101.504 307.398L101.055 308.646L101.228 309.98Z" fill="#BCBDD2"/>
<path d="M101.228 309.98L101.205 311.274L101.647 312.522L102.578 313.495L103.817 314.036L105.119 314.389L106.452 314.546L107.975 314.703L109.491 314.939L111.022 314.962L112.552 314.994L114.083 314.962L115.614 314.97L117.129 314.711L118.637 314.46L120.136 314.123L121.588 313.62L123.19 312.93L124.737 312.106L126.331 311.408L127.98 310.827L129.716 310.67L131.413 310.756L133.109 310.898L134.79 310.874L136.132 310.749L137.45 310.474L138.933 310.301L140.417 310.152L141.861 309.799L143.297 309.43L144.584 308.661L145.388 307.414L145.704 305.696L145.388 303.961L144.789 302.29L144.599 302.133L144.039 302.251L142.729 303.381L141.324 304.37L139.793 305.154L138.223 305.523L136.629 305.829L135.011 305.766L133.394 305.782L131.776 305.68L130.15 305.656L128.532 305.57L126.931 305.821L125.305 306.213L123.679 306.668L122.133 307.328L120.562 307.916L119.031 308.465L117.445 308.842L115.835 309.101L114.218 309.226L112.6 309.36L110.974 309.313L109.356 309.234L107.731 309.132L106.137 308.834L104.574 308.379L102.988 308.002L101.504 307.398L101.055 308.646L101.228 309.98Z" stroke="#626493" stroke-width="1.5" stroke-linecap="round" stroke-linejoin="round"/>
<path d="M117.453 294.601L118.471 295.621L119.402 296.735L120.247 297.904" stroke="#626493" stroke-width="1.27112" stroke-linecap="round" stroke-linejoin="round"/>
<path d="M113.564 297.127L114.575 298.32L115.506 299.567L116.35 300.878" stroke="#626493" stroke-width="0.706176" stroke-linecap="round" stroke-linejoin="round"/>
<path d="M206.561 63.8609L206.734 62.1896L206.924 60.5262L207.105 58.8549L207.208 57.1758L207.437 55.5045L207.579 53.8254L207.689 52.3816L208.178 51.0321L210.001 51.3851L209.97 53.2526L209.962 55.12L209.914 56.9796L209.701 58.8314L209.946 56.9169L210.175 55.0102L210.546 53.127L211.011 51.2596L211.351 49.3608L212.163 48.3643L213.679 48.9449L213.852 50.5377L213.686 52.2012L213.481 53.8567L213.371 55.528L213.142 57.1836L212.96 58.8471L212.842 60.5026L212.984 58.9255L213.205 57.3405L213.473 55.7713L213.781 54.2098L213.931 52.6249L214.989 51.1654L216.559 51.9422L216.567 53.637L216.354 55.324L216.07 57.011L215.778 58.6901L215.509 60.3771L215.257 62.0327L215.541 60.487L215.849 58.9255L216.164 57.3641L216.567 55.8105L217.443 54.7356L218.524 56.3284L218.413 58.1958L218.208 60.0554L218.058 61.915L217.9 63.7746L217.758 65.6421L217.695 67.5095L217.482 69.3691L217.238 71.0247L216.819 72.6489L215.904 74.0612L214.491 74.9557L214.105 75.2539L214.349 75.2696" fill="white"/>
<path d="M206.561 63.8609L206.734 62.1896L206.924 60.5262L207.105 58.8549L207.208 57.1758L207.437 55.5045L207.579 53.8254L207.689 52.3816L208.178 51.0321L210.001 51.3851L209.97 53.2526L209.962 55.12L209.914 56.9796L209.701 58.8314L209.946 56.9169L210.175 55.0102L210.546 53.127L211.011 51.2596L211.351 49.3608L212.163 48.3643L213.679 48.9449L213.852 50.5377L213.686 52.2012L213.481 53.8567L213.371 55.528L213.142 57.1836L212.96 58.8471L212.842 60.5026L212.984 58.9255L213.205 57.3405L213.473 55.7713L213.781 54.2098L213.931 52.6249L214.989 51.1654L216.559 51.9422L216.567 53.637L216.354 55.324L216.07 57.011L215.778 58.6901L215.509 60.3771L215.257 62.0327L215.541 60.487L215.849 58.9255L216.164 57.3641L216.567 55.8105L217.443 54.7356L218.524 56.3284L218.413 58.1958L218.208 60.0554L218.058 61.915L217.9 63.7746L217.758 65.6421L217.695 67.5095L217.482 69.3691L217.238 71.0247L216.819 72.6489L215.904 74.0612L214.491 74.9557L214.105 75.2539L214.349 75.2696" stroke="#626493" stroke-width="1.5" stroke-linecap="round" stroke-linejoin="round"/>
<path d="M208.462 75.1684L206.512 74.4151L205.242 72.7752L204.816 70.8136L204.358 68.852L203.735 67.7927L203.119 66.5766L202.535 65.3447L201.833 63.6184L201.091 61.9158L200.349 60.2131L200.191 59.5619L200.823 59.0283L202.511 59.2323L203.735 60.425L204.737 62.3316L205.431 63.3125L206.623 64.6463L208.17 64.9053L209.511 65.7684L210.632 66.8983L211.342 68.3185" fill="white"/>
<path d="M208.462 75.1684L206.512 74.4151L205.242 72.7752L204.816 70.8136L204.358 68.852L203.735 67.7927L203.119 66.5766L202.535 65.3447L201.833 63.6184L201.091 61.9158L200.349 60.2131L200.191 59.5619L200.823 59.0283L202.511 59.2323L203.735 60.425L204.737 62.3316L205.431 63.3125L206.623 64.6463L208.17 64.9053L209.511 65.7684L210.632 66.8983L211.342 68.3185" stroke="#626493" stroke-width="1.47512" stroke-linecap="round" stroke-linejoin="round"/>
<path d="M146.33 81.1945L145.398 80.9512L145.098 80.9434L144.838 81.2651L144.262 82.9364L143.804 84.6469L143.465 86.3809L143.457 86.7418L143.867 87.1185L144.909 87.3539L145.564 85.7375L146.077 84.0741L146.503 82.3871L146.33 81.4141L146.203 81.3121L146.219 81.1866L146.33 81.1945Z" fill="white"/>
<path d="M146.33 81.1945L145.398 80.9512L145.098 80.9434L144.838 81.2651L144.262 82.9364L143.804 84.6469L143.465 86.3809L143.457 86.7418L143.867 87.1185L144.909 87.3539L145.564 85.7375L146.077 84.0741L146.503 82.3871L146.33 81.4141L146.203 81.3121L146.219 81.1866L146.33 81.1945Z" stroke="#626493" stroke-width="0.78464" stroke-linecap="round" stroke-linejoin="round"/>
<path d="M135.786 48.8125L134.294 49.9424L132.74 50.7584L131.248 51.7078L129.544 52.1865L127.871 52.7279L126.182 53.1986L124.627 54.0382L122.923 54.4776L121.273 55.0975L119.727 55.937L118.172 56.7609L116.775 57.8516L115.276 58.7617L113.832 59.7347L112.317 60.6135L110.802 61.5158L109.744 62.9596L110.06 64.6387L110.218 66.3178L110.589 67.9813L110.652 69.6839L111.015 71.3474L111.204 73.0343L111.125 74.7527L111.464 76.4161L111.693 78.0953L111.654 79.8058L111.733 81.4692L111.859 83.2425L111.693 85.0158L111.827 86.7813L112.167 88.5232L112.285 90.2964L112.648 92.0305L113.082 93.741L113.422 95.4829L113.816 97.2013L114.337 98.8961L115.016 100.536L115.505 102.231L115.915 103.926L116.412 105.605L116.373 107.378L116.862 109.073L116.941 110.823L117.43 112.525L117.612 114.259L117.762 116.001L118.014 117.735L118.054 119.485L118.251 121.219L118.417 122.961L118.212 124.719L118.33 126.461L118.354 128.21L118.291 129.952L118.172 131.694L117.904 133.42L117.785 135.154L117.691 136.904L117.162 138.591L117.154 140.357L117.052 141.855L117.146 143.362L118.204 144.696L119.829 145.19L121.376 145.865L123.159 146.288L124.951 146.657L126.742 147.002L128.589 147.089L130.349 147.63L132.179 147.787L133.986 148.062L135.817 148.14L137.617 148.517L139.432 148.784L141.27 148.76L143.101 148.878L144.932 148.846L146.771 148.666H148.578L150.408 148.713L152.208 148.462L154.015 148.226L155.783 147.779L157.598 147.614L159.342 147.073L161.18 146.963L162.964 146.602L164.731 146.147L166.444 145.496L168.133 144.798L169.861 144.264L171.676 143.895L173.286 143.032L174.84 142.091L176.221 140.953L177.713 139.336L178.084 137.642L177.555 136.002L177.176 134.197L176.434 132.534L175.85 130.815L175.495 129.034L175.243 127.237L174.84 125.464L174.919 123.644L174.69 121.839L174.572 120.034L174.809 118.23L174.556 116.417L174.477 114.612L174.493 112.8L174.446 110.987L174.659 109.175L175.132 107.409L175.211 105.573L175.59 103.784L176.276 102.074L176.632 100.285L177.097 98.5273L177.287 96.707L177.365 94.9964L177.287 93.2859L177.223 91.5597L176.781 89.8806L176.821 88.0994L176.774 86.3419L176.592 84.5921L176.632 82.8345V81.0691L176.742 79.3036L177.184 77.5853L177.302 75.8198L177.626 74.0858L178.044 72.3674L178.746 70.7432L179.125 69.0092L179.804 67.3849L180.609 65.8078L181.366 64.2228L182.203 62.6771L182.937 61.0764L181.682 60.0642L180.159 59.2953L178.454 58.1654L176.568 57.3572L174.698 56.5255L173.073 55.6624L171.581 54.5718L169.971 53.693L168.338 52.8534L166.649 52.1237L164.842 51.6843L163.224 50.7898L161.535 50.0679L159.72 49.6835L158.016 49.0714L157.274 50.6093L156.461 52.1551L155.885 53.8028L154.97 55.2936L154.196 56.8551L153.494 58.3459L152.894 59.8838L152.129 61.3667L151.868 63.0066L151.284 64.6152L151.213 66.3178L150.977 67.997L150.85 69.6918L150.29 71.3003L149.982 72.9716L149.264 74.737L148.246 76.3534L147.512 78.111L146.755 79.8607L146.352 81.7046L146.045 83.6662L145.484 81.7125L145.303 79.798L144.908 77.9148L144.593 76.0003L143.874 74.1956L142.825 72.8068L141.799 71.4258L140.781 70.0213L139.447 68.8914L138.477 67.4399L137.837 65.8235L137.048 64.2935L136.48 62.6614L136.212 60.9509L135.959 59.2482L135.675 57.5456L135.612 55.8272L135.541 54.101L135.415 52.3748L135.715 50.6721L135.786 48.8125Z" fill="#FF5959"/>
<path d="M135.786 48.8125L134.294 49.9424L132.74 50.7584L131.248 51.7078L129.544 52.1865L127.871 52.7279L126.182 53.1986L124.627 54.0382L122.923 54.4776L121.273 55.0975L119.727 55.937L118.172 56.7609L116.775 57.8516L115.276 58.7617L113.832 59.7347L112.317 60.6135L110.802 61.5158L109.744 62.9596L110.06 64.6387L110.218 66.3178L110.589 67.9813L110.652 69.6839L111.015 71.3474L111.204 73.0343L111.125 74.7527L111.464 76.4161L111.693 78.0953L111.654 79.8058L111.733 81.4692L111.859 83.2425L111.693 85.0158L111.827 86.7813L112.167 88.5232L112.285 90.2964L112.648 92.0305L113.082 93.741L113.422 95.4829L113.816 97.2013L114.337 98.8961L115.016 100.536L115.505 102.231L115.915 103.926L116.412 105.605L116.373 107.378L116.862 109.073L116.941 110.823L117.43 112.525L117.612 114.259L117.762 116.001L118.014 117.735L118.054 119.485L118.251 121.219L118.417 122.961L118.212 124.719L118.33 126.461L118.354 128.21L118.291 129.952L118.172 131.694L117.904 133.42L117.785 135.154L117.691 136.904L117.162 138.591L117.154 140.357L117.052 141.855L117.146 143.362L118.204 144.696L119.829 145.19L121.376 145.865L123.159 146.288L124.951 146.657L126.742 147.002L128.589 147.089L130.349 147.63L132.179 147.787L133.986 148.062L135.817 148.14L137.617 148.517L139.432 148.784L141.27 148.76L143.101 148.878L144.932 148.846L146.771 148.666H148.578L150.408 148.713L152.208 148.462L154.015 148.226L155.783 147.779L157.598 147.614L159.342 147.073L161.18 146.963L162.964 146.602L164.731 146.147L166.444 145.496L168.133 144.798L169.861 144.264L171.676 143.895L173.286 143.032L174.84 142.091L176.221 140.953L177.713 139.336L178.084 137.642L177.555 136.002L177.176 134.197L176.434 132.534L175.85 130.815L175.495 129.034L175.243 127.237L174.84 125.464L174.919 123.644L174.69 121.839L174.572 120.034L174.809 118.23L174.556 116.417L174.477 114.612L174.493 112.8L174.446 110.987L174.659 109.175L175.132 107.409L175.211 105.573L175.59 103.784L176.276 102.074L176.632 100.285L177.097 98.5273L177.287 96.707L177.365 94.9964L177.287 93.2859L177.223 91.5597L176.781 89.8806L176.821 88.0994L176.774 86.3419L176.592 84.5921L176.632 82.8345V81.0691L176.742 79.3036L177.184 77.5853L177.302 75.8198L177.626 74.0858L178.044 72.3674L178.746 70.7432L179.125 69.0092L179.804 67.3849L180.609 65.8078L181.366 64.2228L182.203 62.6771L182.937 61.0764L181.682 60.0642L180.159 59.2953L178.454 58.1654L176.568 57.3572L174.698 56.5255L173.073 55.6624L171.581 54.5718L169.971 53.693L168.338 52.8534L166.649 52.1237L164.842 51.6843L163.224 50.7898L161.535 50.0679L159.72 49.6835L158.016 49.0714L157.274 50.6093L156.461 52.1551L155.885 53.8028L154.97 55.2936L154.196 56.8551L153.494 58.3459L152.894 59.8838L152.129 61.3667L151.868 63.0066L151.284 64.6152L151.213 66.3178L150.977 67.997L150.85 69.6918L150.29 71.3003L149.982 72.9716L149.264 74.737L148.246 76.3534L147.512 78.111L146.755 79.8607L146.352 81.7046L146.045 83.6662L145.484 81.7125L145.303 79.798L144.908 77.9148L144.593 76.0003L143.874 74.1956L142.825 72.8068L141.799 71.4258L140.781 70.0213L139.447 68.8914L138.477 67.4399L137.837 65.8235L137.048 64.2935L136.48 62.6614L136.212 60.9509L135.959 59.2482L135.675 57.5456L135.612 55.8272L135.541 54.101L135.415 52.3748L135.715 50.6721L135.786 48.8125Z" stroke="#626493" stroke-width="1.5" stroke-linecap="round" stroke-linejoin="round"/>
<path d="M137.488 45.9014L135.98 46.89L134.718 48.1141L133.747 49.5813L132.769 51.0408L131.877 52.5551L130.78 53.9361L129.596 55.2307L128.16 56.1409L129.604 57.161L130.859 58.4792L132.082 59.8366L132.998 61.4059L133.968 62.9594L134.955 64.3326L136.067 65.6194L137.377 66.7257L138.624 67.8948L139.903 69.0404L140.905 70.4214L141.678 71.9279L142.538 73.3795L143.264 74.9017L144.038 76.4003L144.598 77.9932L145.127 79.5938L145.569 81.218L146.066 82.8265L146.318 84.4978L146.579 86.0828L146.413 84.4508L146.16 82.7559L145.797 81.0768L145.513 79.382L145.174 77.7028L144.843 76.0237L144.48 74.3446L143.99 72.6968L143.13 71.2923L142.12 69.9977L140.992 68.7972L139.981 67.4868L139.034 66.1451L138.198 64.6386L137.346 63.1399L136.399 61.704L135.775 60.1034L135.728 58.4007L136.186 56.2665L136.856 54.1636L137.361 52.5787L137.575 50.9309L137.582 49.2675L137.59 47.604L137.488 45.9014Z" fill="#181C56"/>
<path d="M137.488 45.9014L135.98 46.89L134.718 48.1141L133.747 49.5813L132.769 51.0408L131.877 52.5551L130.78 53.9361L129.596 55.2307L128.16 56.1409L129.604 57.161L130.859 58.4792L132.082 59.8366L132.998 61.4059L133.968 62.9594L134.955 64.3326L136.067 65.6194L137.377 66.7257L138.624 67.8948L139.903 69.0404L140.905 70.4214L141.678 71.9279L142.538 73.3795L143.264 74.9017L144.038 76.4003L144.598 77.9932L145.127 79.5938L145.569 81.218L146.066 82.8265L146.318 84.4978L146.579 86.0828L146.413 84.4508L146.16 82.7559L145.797 81.0768L145.513 79.382L145.174 77.7028L144.843 76.0237L144.48 74.3446L143.99 72.6968L143.13 71.2923L142.12 69.9977L140.992 68.7972L139.981 67.4868L139.034 66.1451L138.198 64.6386L137.346 63.1399L136.399 61.704L135.775 60.1034L135.728 58.4007L136.186 56.2665L136.856 54.1636L137.361 52.5787L137.575 50.9309L137.582 49.2675L137.59 47.604L137.488 45.9014Z" stroke="#626493" stroke-width="0.78464" stroke-linecap="round" stroke-linejoin="round"/>
<path d="M158.135 49.7375C159.343 51.2754 160.195 53.0409 160.653 54.9397C160.952 56.203 161.118 57.4741 161.071 58.7766C161.071 58.8315 161.023 58.8786 160.96 58.8786C160.913 58.8786 160.873 58.8472 160.858 58.8001C160.692 58.1803 160.558 57.5525 160.432 56.9327C160.147 55.9519 159.65 54.2884 159.366 53.3704C158.869 52.1621 158.403 51.0636 157.938 49.8395C157.898 49.7297 158.056 49.6434 158.127 49.7375H158.135Z" fill="#626493"/>
<path d="M161.415 52.8685C163.151 54.5162 164.359 56.6347 165.187 58.8553C165.598 59.9773 165.874 61.1229 165.976 62.3155C165.976 62.3705 165.945 62.4254 165.882 62.4332C165.834 62.4332 165.787 62.4097 165.771 62.3626C165.558 61.8134 165.377 61.2563 165.195 60.6913C164.548 59.1927 163.822 57.4978 163.001 56.007C162.417 54.9478 161.873 54.0297 161.25 52.994C161.186 52.892 161.336 52.7743 161.415 52.8685Z" fill="#626493"/>
<path d="M140.993 80.5896C136.676 77.2784 132.636 73.2846 128.808 69.4163C128.721 69.33 128.848 69.1809 128.95 69.2594C131.136 70.8836 133.235 72.8138 135.24 74.642C137.284 76.486 139.249 78.4318 141.135 80.4405C141.221 80.5268 141.095 80.6759 140.993 80.5975V80.5896Z" fill="#626493"/>
<path d="M177.238 138.363L177.538 136.692L177.301 134.973L176.52 133.326L176.039 131.576L175.573 129.826L174.989 128.1L174.689 126.311L174.492 124.506L174.247 122.702L174.35 120.889L174.247 119.084L174.429 117.272L174.145 115.467L174.184 113.655L174.137 111.842L174.129 110.03L174.247 108.225L174.563 106.436L175.076 104.678L175.21 102.85L175.778 101.108L176.165 99.3272L176.488 97.5303L176.867 95.7571L177.025 94.0465L176.82 92.336L176.646 90.6255L176.394 88.9228L176.386 87.2673L176.212 85.6352L176.267 83.9953L176.078 82.4025L174.587 81.6414L172.969 81.0764L171.343 80.5115L169.686 80.0486L167.989 79.7582L166.285 79.2247L164.501 79.0756L162.765 78.7147L161.013 78.3694L159.238 78.2518L157.462 78.1654L155.695 77.9928L153.919 77.9222L152.143 77.8124L150.36 77.7496L148.577 77.624L146.785 77.7339L146.28 79.3502L145.625 80.9195L145.617 82.6771L145.152 81.0294L144.765 79.4444L144.655 77.726L142.839 77.8202L141.088 77.8516L139.352 78.189L137.536 78.087L135.761 78.4322L133.962 78.6048L132.202 79.005L130.411 79.2012L128.651 79.617L126.867 79.8838L125.139 80.4252L123.427 80.9901L121.675 81.3981L119.899 81.7748L118.234 82.4809L116.474 82.9047L114.833 83.6736L113.176 84.3719L111.416 84.9055L111.645 86.6082L111.771 88.2873L112.174 89.9193L112.402 91.5828L112.608 93.2541L113.105 94.8626L113.507 96.4946L114.123 98.0639L114.509 99.7038L115.014 101.304L115.377 102.999L115.89 104.671L116.04 106.412L116.246 108.147L116.561 109.865L116.806 111.599L117.2 113.309L117.398 115.044L117.603 116.785L117.682 118.527V120.277L117.729 122.027L117.95 123.761L117.966 125.511L118.076 127.26L117.903 129.002L117.887 130.752L117.705 132.486L117.295 134.197L117.161 135.938L116.932 137.665L116.545 139.375L116.403 140.897L116.806 142.373L117.784 143.738L119.315 144.46L120.972 144.789L122.74 145.252L124.539 145.59L126.347 145.888L128.13 146.272L129.929 146.625L131.744 146.884L133.567 147.025L135.374 147.3L137.189 147.512L139.02 147.535L140.835 147.881L142.674 147.802L144.505 147.967L146.343 147.802L148.143 147.724L149.958 147.575L151.749 147.316L153.564 147.143L155.347 146.814L157.131 146.461L158.954 146.319L160.721 145.903L162.497 145.48L164.265 145.048L166.024 144.585L167.792 144.138L169.504 143.495L171.17 142.757L172.906 142.184L174.421 141.156L175.857 140.074L177.238 138.363Z" fill="#181C56"/>
<path d="M177.238 138.363L177.538 136.692L177.301 134.973L176.52 133.326L176.039 131.576L175.573 129.826L174.989 128.1L174.689 126.311L174.492 124.506L174.247 122.702L174.35 120.889L174.247 119.084L174.429 117.272L174.145 115.467L174.184 113.655L174.137 111.842L174.129 110.03L174.247 108.225L174.563 106.436L175.076 104.678L175.21 102.85L175.778 101.108L176.165 99.3272L176.488 97.5303L176.867 95.7571L177.025 94.0465L176.82 92.336L176.646 90.6255L176.394 88.9228L176.386 87.2673L176.212 85.6352L176.267 83.9953L176.078 82.4025L174.587 81.6414L172.969 81.0764L171.343 80.5115L169.686 80.0486L167.989 79.7582L166.285 79.2247L164.501 79.0756L162.765 78.7147L161.013 78.3694L159.238 78.2518L157.462 78.1654L155.695 77.9928L153.919 77.9222L152.143 77.8124L150.36 77.7496L148.577 77.624L146.785 77.7339L146.28 79.3502L145.625 80.9195L145.617 82.6771L145.152 81.0294L144.765 79.4444L144.655 77.726L142.839 77.8202L141.088 77.8516L139.352 78.189L137.536 78.087L135.761 78.4322L133.962 78.6048L132.202 79.005L130.411 79.2012L128.651 79.617L126.867 79.8838L125.139 80.4252L123.427 80.9901L121.675 81.3981L119.899 81.7748L118.234 82.4809L116.474 82.9047L114.833 83.6736L113.176 84.3719L111.416 84.9055L111.645 86.6082L111.771 88.2873L112.174 89.9193L112.402 91.5828L112.608 93.2541L113.105 94.8626L113.507 96.4946L114.123 98.0639L114.509 99.7038L115.014 101.304L115.377 102.999L115.89 104.671L116.04 106.412L116.246 108.147L116.561 109.865L116.806 111.599L117.2 113.309L117.398 115.044L117.603 116.785L117.682 118.527V120.277L117.729 122.027L117.95 123.761L117.966 125.511L118.076 127.26L117.903 129.002L117.887 130.752L117.705 132.486L117.295 134.197L117.161 135.938L116.932 137.665L116.545 139.375L116.403 140.897L116.806 142.373L117.784 143.738L119.315 144.46L120.972 144.789L122.74 145.252L124.539 145.59L126.347 145.888L128.13 146.272L129.929 146.625L131.744 146.884L133.567 147.025L135.374 147.3L137.189 147.512L139.02 147.535L140.835 147.881L142.674 147.802L144.505 147.967L146.343 147.802L148.143 147.724L149.958 147.575L151.749 147.316L153.564 147.143L155.347 146.814L157.131 146.461L158.954 146.319L160.721 145.903L162.497 145.48L164.265 145.048L166.024 144.585L167.792 144.138L169.504 143.495L171.17 142.757L172.906 142.184L174.421 141.156L175.857 140.074L177.238 138.363Z" stroke="#626493" stroke-width="0.78464" stroke-linecap="round" stroke-linejoin="round"/>
<path d="M165.228 84.8431L164.518 84.8038L163.8 84.7803L163.09 84.7254L162.379 84.6783L161.669 84.639L160.951 84.6076L160.233 84.5527L159.515 84.5213L158.97 84.2624L158.812 83.6975L158.836 83.0933L158.876 82.4813L158.923 81.8693L159.16 81.3436L159.72 81.1631H160.43L161.14 81.2494L161.859 81.2651L162.561 81.32L163.279 81.3906L163.989 81.4299L164.715 81.422L165.433 81.4848L165.978 81.728L166.128 82.293L166.104 82.905V83.517L166.041 84.1212L165.796 84.6547L165.228 84.8431Z" fill="white"/>
<path d="M149.089 26.5758C148.852 27.1407 148.939 28.6472 149.349 28.812C149.76 28.9768 150.659 28.608 150.896 28.0509C151.133 27.4938 150.754 26.4267 150.352 26.2619C149.949 26.0972 149.334 26.0187 149.097 26.5758H149.089Z" fill="#626493"/>
<path d="M138.994 28.5836C139.317 28.1049 139.357 26.6769 138.994 26.4337C138.631 26.1904 137.676 26.2453 137.352 26.7161C137.029 27.1869 137.321 28.2226 137.692 28.4737C138.063 28.7248 138.678 29.0622 139.002 28.5836H138.994Z" fill="#626493"/>
<path d="M134.706 14.719L136.544 14.5542L138.146 13.6048L139.101 12.0434L137.657 11.1411L136.521 9.84641L135.937 8.23005L135.455 7.31201L135.013 7.32771L133.277 7.79064L131.786 8.79498L130.594 10.1917L129.537 11.6903L129.079 13.4401L129.142 14.8603L128.905 17.2456L128.59 18.9953L128.645 20.7686L128.882 22.5262L129.292 24.2524L129.892 25.9237L130.5 27.5871L131.344 28.9053L131.51 27.3282L131.573 25.7197L131.683 24.1033L131.865 22.4948L132.086 20.902L132.409 19.2307L133.064 17.6693L133.861 16.1706L134.706 14.719Z" fill="#BCBDD2"/>
<path d="M134.706 14.719L136.544 14.5542L138.146 13.6048L139.101 12.0434L137.657 11.1411L136.521 9.84641L135.937 8.23005L135.455 7.31201L135.013 7.32771L133.277 7.79064L131.786 8.79498L130.594 10.1917L129.537 11.6903L129.079 13.4401L129.142 14.8603L128.905 17.2456L128.59 18.9953L128.645 20.7686L128.882 22.5262L129.292 24.2524L129.892 25.9237L130.5 27.5871L131.344 28.9053L131.51 27.3282L131.573 25.7197L131.683 24.1033L131.865 22.4948L132.086 20.902L132.409 19.2307L133.064 17.6693L133.861 16.1706L134.706 14.719Z" stroke="#626493" stroke-width="1.5" stroke-linecap="round" stroke-linejoin="round"/>
<path d="M144.782 15.9432L143.251 14.9153L141.894 13.6755L140.371 12.6555L138.627 12.0592L136.922 11.3687L135.604 10.0819L134.926 8.38707L134.752 6.57456L135.273 4.81696L136.393 3.34968L137.948 2.39242L139.684 1.85886L141.468 1.53716L143.251 1.20761L144.932 0.995763L146.613 0.84668L148.309 0.917294L149.959 1.30177L151.647 1.7804L153.241 2.51011L154.693 3.48307L156.027 4.6208L157.148 5.95468L158.095 7.42196L158.9 8.95986L159.594 10.5605L160.115 12.2318L160.446 13.9423L160.675 15.6685L160.794 17.4104L160.809 19.1445L160.549 20.8707L160.241 22.5891L159.791 24.276L159.152 25.8924L158.41 27.4695L157.574 28.9996L157.258 28.9211L157.148 26.9438L157.321 24.9744L157.692 23.0206L156.777 21.6161L156.406 19.9919L156.682 18.3442L155.341 17.2221L153.652 16.6729L151.86 16.5081L150.069 16.4924L148.27 16.5709L146.479 16.4453L144.782 15.9432Z" fill="#BCBDD2"/>
<path d="M144.782 15.9432L143.251 14.9153L141.894 13.6755L140.371 12.6555L138.627 12.0592L136.922 11.3687L135.604 10.0819L134.926 8.38707L134.752 6.57456L135.273 4.81696L136.393 3.34968L137.948 2.39242L139.684 1.85886L141.468 1.53716L143.251 1.20761L144.932 0.995763L146.613 0.84668L148.309 0.917294L149.959 1.30177L151.647 1.7804L153.241 2.51011L154.693 3.48307L156.027 4.6208L157.148 5.95468L158.095 7.42196L158.9 8.95986L159.594 10.5605L160.115 12.2318L160.446 13.9423L160.675 15.6685L160.794 17.4104L160.809 19.1445L160.549 20.8707L160.241 22.5891L159.791 24.276L159.152 25.8924L158.41 27.4695L157.574 28.9996L157.258 28.9211L157.148 26.9438L157.321 24.9744L157.692 23.0206L156.777 21.6161L156.406 19.9919L156.682 18.3442L155.341 17.2221L153.652 16.6729L151.86 16.5081L150.069 16.4924L148.27 16.5709L146.479 16.4453L144.782 15.9432Z" stroke="#626493" stroke-width="1.5" stroke-linecap="round" stroke-linejoin="round"/>
<path d="M140.693 11.0784L140.504 9.71317L140.938 8.39497L141.782 7.28078L142.785 6.31568L144.102 5.38979L145.649 5.09948L145.902 5.10732L145.988 4.90332L145.854 4.99747" stroke="#626493" stroke-linecap="round" stroke-linejoin="round"/>
<path d="M143.748 10.7885L144.466 9.33693L145.658 8.23844L147.149 7.58719L148.775 7.52441" stroke="#626493" stroke-linecap="round" stroke-linejoin="round"/>
<path d="M148.389 10.6081L149.967 9.79989L151.687 9.36048L153.463 9.3291L155.207 9.67435" stroke="#626493" stroke-linecap="round" stroke-linejoin="round"/>
<path d="M153.059 12.9536L154.432 14.1227L156.089 14.8211L157.888 14.978" stroke="#626493" stroke-linecap="round" stroke-linejoin="round"/>
<path d="M131.414 11.6123L132.045 13.0796L133.237 14.1624L134.76 14.6802" stroke="#626493" stroke-linecap="round" stroke-linejoin="round"/>
<path d="M132.51 20.5255L131.563 19.2701L131.09 17.7714L131.106 16.2021" stroke="#626493" stroke-linecap="round" stroke-linejoin="round"/>
<path d="M173.791 109.166C173.502 111.542 172.519 113.774 171.229 115.762C170.572 116.76 169.817 117.664 168.92 118.457C168.876 118.49 168.813 118.497 168.769 118.451C168.741 118.413 168.731 118.361 168.76 118.32C169.074 117.822 169.414 117.344 169.759 116.862C170.577 115.449 171.506 113.857 172.215 112.309C172.718 111.209 173.131 110.225 173.591 109.107C173.636 108.996 173.82 109.046 173.791 109.166Z" fill="#626493"/>
<path d="M138.519 140.163C135.483 140.284 132.19 139.925 128.815 139.112C126.57 138.566 124.361 137.89 122.176 136.995C122.083 136.959 122.02 136.884 122.043 136.825C122.06 136.781 122.127 136.764 122.213 136.78C123.321 137.031 124.431 137.316 125.524 137.603C127.285 137.979 130.277 138.602 131.932 138.937C134.154 139.263 136.18 139.546 138.417 139.912C138.617 139.947 138.706 140.15 138.522 140.155L138.519 140.163Z" fill="#626493"/>
<path d="M153.486 140.777C155.766 139.961 158.444 139.198 160.675 138.464C161.022 138.342 161.727 138.039 161.902 138.014C162.284 137.757 162.66 137.487 163.052 137.239C163.091 137.214 163.147 137.228 163.168 137.27C163.186 137.304 163.178 137.356 163.149 137.384C162.816 137.719 162.468 138.027 162.128 138.348C161.141 138.898 160.103 139.309 159.049 139.662C158.009 140.06 156.475 140.441 155.38 140.658C154.769 140.795 154.143 140.879 153.517 140.946C153.422 140.957 153.393 140.8 153.489 140.766L153.486 140.777Z" fill="#626493"/>
</svg>
